<?xml version="1.0" encoding="UTF-8" standalone="no"?>
<!-- Created with Inkscape (http://www.inkscape.org/) -->

<svg
   xmlns:dc="http://purl.org/dc/elements/1.1/"
   xmlns:cc="http://creativecommons.org/ns#"
   xmlns:rdf="http://www.w3.org/1999/02/22-rdf-syntax-ns#"
   xmlns:svg="http://www.w3.org/2000/svg"
   xmlns="http://www.w3.org/2000/svg"
   xmlns:xlink="http://www.w3.org/1999/xlink"
   xmlns:sodipodi="http://sodipodi.sourceforge.net/DTD/sodipodi-0.dtd"
   xmlns:inkscape="http://www.inkscape.org/namespaces/inkscape"
   width="210mm"
   height="297mm"
   id="svg2"
   version="1.1"
   inkscape:version="0.48.3.1 r9886"
   sodipodi:docname="contorno_scratch.svg">
  <defs
     id="defs4" />
  <sodipodi:namedview
     id="base"
     pagecolor="#ffffff"
     bordercolor="#666666"
     borderopacity="1.0"
     inkscape:pageopacity="0.0"
     inkscape:pageshadow="2"
     inkscape:zoom="1.4142136"
     inkscape:cx="10.860997"
     inkscape:cy="975.95076"
     inkscape:document-units="px"
     inkscape:current-layer="layer2"
     showgrid="false"
     inkscape:window-width="1024"
     inkscape:window-height="578"
     inkscape:window-x="0"
     inkscape:window-y="0"
     inkscape:window-maximized="1" />
  <metadata
     id="metadata7">
    <rdf:RDF>
      <cc:Work
         rdf:about="">
        <dc:format>image/svg+xml</dc:format>
        <dc:type
           rdf:resource="http://purl.org/dc/dcmitype/StillImage" />
        <dc:title></dc:title>
      </cc:Work>
    </rdf:RDF>
  </metadata>
  <g
     inkscape:label="Capa 1"
     inkscape:groupmode="layer"
     id="layer1"
     style="display:inline" />
  <g
     inkscape:groupmode="layer"
     id="layer2"
     inkscape:label="Capa"
     style="display:inline">
    <path
       style="fill:none;stroke:#42291b;stroke-width:5;stroke-linecap:butt;stroke-linejoin:miter;stroke-miterlimit:4;stroke-opacity:1;stroke-dasharray:none;display:inline"
       id="path4033-1"
       d="m -95.597364,88.599713 c -34.789126,-12.9495 -33.650846,-50.919765 -22.236016,-56.580385 11.41483,-5.64428 15.60548,18.01773 30.916336,32.845505 6.851663,6.60604 15.102293,9.64522 22.234583,10.93318 -3.41805,-6.49063 -5.60653,-13.48144 -6.60649,-17.54173 -2.50082,-10.290365 6.74298,-12.570065 13.20894,-17.567315 9.71228,-7.52118 16.49139,-15.26947 26.54452,-15.93354 -19.32172,-10.76553 -22.01189,-18.1152498 -28.84877,-30.0980998 -19.33881,-33.8763602 14.59221,-72.1400002 12.63038,-69.9338002 l -4.50663,-55.094708 37.07227,24.04117 c 15.81841961,-8.17644 36.3593,-9.38859 52.17772,-3.90991 l 23.76503,-21.02958 7.07341,33.831768 c 0,0 18.14525,14.51243 23.38184,24.20476 8.829831,16.26759 8.60556,29.28744 8.60556,29.28744 0,0 20.331351,6.86046 23.335351,23.58223 2.79537,15.6007102 -9.32329,43.57718 -55.592411,54.41144 -23.69713,4.96171 -28.10351,3.8655 -46.26564,2.79358 0,0 6.65915,3.82652 11.66959,9.23021 5.04184,5.4219 9.14517,16.455415 19.45188,13.173755 10.31487,-3.294855 17.0723,-17.093025 28.45195,-5.959005 11.35578,11.134025 -11.37965,23.913905 -19.87528,27.805545 -8.51134,3.87153 -15.95413,7.50749 -25.76959,-3.03416 -9.82425,-10.54981 -13.37666,-10.8793 -13.37666,-10.8793 0,0 -4.63409,7.44103 -5.29001,8.30437 -3.79381,4.99363 -8.1656805,9.36953 -11.4174605,11.68082 6.6581005,7.47821 15.4527705,16.685007 20.7812805,21.720617 5.97345,5.63486 18.90787,17.52711 18.90787,17.52711 0,0 48.76445,-6.60667 42.16658,21.59275 -1.94865,8.32539 -56.75628,-0.0176 -56.75628,-0.0176 0,0 -20.3370005,-17.68165 -33.8361604,-32.02509 C -20.017401,98.512523 -15.062871,97.900353 -15.062871,97.900353 c 0,0 -30.18952,19.774457 -55.68867,23.756547 -0.2095,1.8274 19.49178,23.10983 -1.30317,28.99785 -15.677723,4.42622 -43.088759,-40.32599 -30.337149,-48.00434 7.822836,-4.688807 14.805166,0.51197 14.805166,0.51197 0,0 10.198653,-2.76089 17.672853,-6.178867 12.70889,-5.83336 7.10073,-3.38688 7.10073,-3.38688 -9.72908,-0.0989 -20.80406,-0.50978 -32.784253,-4.99693 z"
       inkscape:connector-curvature="0"
       sodipodi:nodetypes="cccccccccccccccccccccccccscccccccccccccc" />
    <path
       sodipodi:type="inkscape:offset"
       inkscape:radius="0"
       inkscape:original="M 62 -135.1875 C 53.257553 -127.82835 45.33231 -119.53348 36.0625 -112.78125 C 19.272796 -117.85046 0.74260616 -116.28137 -15.03125 -108.78125 C -28.218329 -117.31307 -41.356981 -125.92031 -54.59375 -134.375 C -53.168477 -114.78638 -50.946866 -95.253332 -50.09375 -75.625 C -63.610514 -58.074059 -73.11566 -34.231066 -65.65625 -12.34375 C -60.012155 1.7460787 -51.298462 15.720638 -37.625 23.46875 C -49.831795 29.802604 -59.637762 39.828076 -70.96875 47.34375 C -76.836764 55.225721 -71.332726 65.374265 -68.09375 73.1875 C -84.781876 68.911105 -94.298929 53.464604 -102.375 39.4375 C -104.9337 32.915365 -112.90629 25.881613 -119.8125 30.71875 C -130.55446 40.727378 -127.81804 57.762775 -121.5625 69.5625 C -111.77061 86.739128 -91.430935 94.48316 -72.34375 95.28125 C -78.631404 98.49389 -86.171467 102.31952 -93.125 98.625 C -100.84058 96.820643 -110.1725 104.07325 -107.3125 112.3125 C -104.73536 128.23299 -94.224068 142.72793 -80.9375 151.28125 C -72.374647 155.73028 -59.319348 149.68445 -60.59375 139.09375 C -61.018833 133.15324 -64.354044 127.83587 -67.6875 123.0625 C -49.685447 119.20937 -32.955176 110.86386 -17.25 101.5 C -5.477263 120.01214 12.11828 133.65988 27.96875 148.375 C 35.924131 152.29772 45.526952 150.86853 54.15625 152.6875 C 65.009202 153.41208 76.971062 155.26479 87.03125 150.84375 C 93.7385 142.88795 87.327072 130.36258 78.3125 127.21875 C 68.616836 122.75828 57.688964 123.74389 47.40625 124.0625 C 39.57556 121.43078 35.231902 113.28818 28.6875 108.59375 C 21.529484 101.81122 14.506511 94.884533 8.4375 87.09375 C 14.314501 82.245189 18.597835 75.712545 23.21875 69.65625 C 31.719307 75.458268 38.084643 87.833437 49.75 86.78125 C 63.281809 83.644379 77.28159 76.45933 85.0625 64.34375 C 89.499793 53.592058 76.002384 42.972025 66.125 48.40625 C 59.601477 51.700193 53.635313 59.926628 45.40625 56.90625 C 39.379838 52.585544 35.215236 45.753426 31.3125 39.5 C 60.098928 40.198281 91.134584 33.573392 112.4375 13.0625 C 123.91511 1.7363178 130.87076 -18.162337 120.0625 -32.25 C 115.25181 -38.359346 108.50099 -42.402277 101.78125 -46.0625 C 100.45856 -66.531609 88.29103 -84.972512 71.84375 -96.5625 C 66.306209 -102.78128 68.093818 -111.94287 65.34375 -119.375 C 64.216788 -124.62186 63.207346 -130.07394 62 -135.1875 z "
       xlink:href="#path4033-1-3"
       style="fill:none;stroke:#42291b;stroke-width:5;stroke-linecap:butt;stroke-linejoin:miter;stroke-miterlimit:4;stroke-opacity:1;stroke-dasharray:none;display:inline"
       id="path4089"
       inkscape:href="#path4033-1-3"
       d="m 62,-135.1875 c -8.742447,7.35915 -16.66769,15.65402 -25.9375,22.40625 -16.789704,-5.06921 -35.31989384,-3.50012 -51.09375,4 -13.187079,-8.53182 -26.325731,-17.13906 -39.5625,-25.59375 1.425273,19.58862 3.646884,39.121668 4.5,58.75 -13.516764,17.550941 -23.02191,41.393934 -15.5625,63.28125 5.644095,14.0898287 14.357788,28.064388 28.03125,35.8125 -12.206795,6.333854 -22.012762,16.359326 -33.34375,23.875 -5.868014,7.881971 -0.363976,18.030515 2.875,25.84375 -16.688126,-4.276395 -26.205179,-19.722896 -34.28125,-33.75 -2.5587,-6.522135 -10.53129,-13.555887 -17.4375,-8.71875 -10.74196,10.008628 -8.00554,27.044025 -1.75,38.84375 9.79189,17.176628 30.131565,24.92066 49.21875,25.71875 -6.287654,3.21264 -13.827717,7.03827 -20.78125,3.34375 -7.71558,-1.804357 -17.0475,5.44825 -14.1875,13.6875 2.57714,15.92049 13.088432,30.41543 26.375,38.96875 8.562853,4.44903 21.618152,-1.5968 20.34375,-12.1875 -0.425083,-5.94051 -3.760294,-11.25788 -7.09375,-16.03125 18.002053,-3.85313 34.732324,-12.19864 50.4375,-21.5625 11.772737,18.51214 29.36828,32.15988 45.21875,46.875 7.955381,3.92272 17.558202,2.49353 26.1875,4.3125 10.852952,0.72458 22.814812,2.57729 32.875,-1.84375 6.70725,-7.9558 0.295822,-20.48117 -8.71875,-23.625 -9.695664,-4.46047 -20.623536,-3.47486 -30.90625,-3.15625 -7.83069,-2.63172 -12.174348,-10.77432 -18.71875,-15.46875 -7.158016,-6.78253 -14.180989,-13.709217 -20.25,-21.5 5.877001,-4.848561 10.160335,-11.381205 14.78125,-17.4375 8.500557,5.802018 14.865893,18.177187 26.53125,17.125 C 63.281809,83.644379 77.28159,76.45933 85.0625,64.34375 89.499793,53.592058 76.002384,42.972025 66.125,48.40625 59.601477,51.700193 53.635313,59.926628 45.40625,56.90625 39.379838,52.585544 35.215236,45.753426 31.3125,39.5 c 28.786428,0.698281 59.822084,-5.926608 81.125,-26.4375 11.47761,-11.3261822 18.43326,-31.224837 7.625,-45.3125 -4.81069,-6.109346 -11.56151,-10.152277 -18.28125,-13.8125 -1.32269,-20.469109 -13.49022,-38.910012 -29.9375,-50.5 -5.537541,-6.21878 -3.749932,-15.38037 -6.5,-22.8125 -1.126962,-5.24686 -2.136404,-10.69894 -3.34375,-15.8125 z" />
    <path
       sodipodi:type="inkscape:offset"
       inkscape:radius="0"
       inkscape:original="M 62 -135.1875 C 53.257553 -127.82835 45.33231 -119.53348 36.0625 -112.78125 C 19.272796 -117.85046 0.74260616 -116.28137 -15.03125 -108.78125 C -28.218329 -117.31307 -41.356981 -125.92031 -54.59375 -134.375 C -53.168477 -114.78638 -50.946866 -95.253332 -50.09375 -75.625 C -63.610514 -58.074059 -73.11566 -34.231066 -65.65625 -12.34375 C -60.012155 1.7460787 -51.298462 15.720638 -37.625 23.46875 C -49.831795 29.802604 -59.637762 39.828076 -70.96875 47.34375 C -76.836764 55.225721 -71.332726 65.374265 -68.09375 73.1875 C -84.781876 68.911105 -94.298929 53.464604 -102.375 39.4375 C -104.9337 32.915365 -112.90629 25.881613 -119.8125 30.71875 C -130.55446 40.727378 -127.81804 57.762775 -121.5625 69.5625 C -111.77061 86.739128 -91.430935 94.48316 -72.34375 95.28125 C -78.631404 98.49389 -86.171467 102.31952 -93.125 98.625 C -100.84058 96.820643 -110.1725 104.07325 -107.3125 112.3125 C -104.73536 128.23299 -94.224068 142.72793 -80.9375 151.28125 C -72.374647 155.73028 -59.319348 149.68445 -60.59375 139.09375 C -61.018833 133.15324 -64.354044 127.83587 -67.6875 123.0625 C -49.685447 119.20937 -32.955176 110.86386 -17.25 101.5 C -5.477263 120.01214 12.11828 133.65988 27.96875 148.375 C 35.924131 152.29772 45.526952 150.86853 54.15625 152.6875 C 65.009202 153.41208 76.971062 155.26479 87.03125 150.84375 C 93.7385 142.88795 87.327072 130.36258 78.3125 127.21875 C 68.616836 122.75828 57.688964 123.74389 47.40625 124.0625 C 39.57556 121.43078 35.231902 113.28818 28.6875 108.59375 C 21.529484 101.81122 14.506511 94.884533 8.4375 87.09375 C 14.314501 82.245189 18.597835 75.712545 23.21875 69.65625 C 31.719307 75.458268 38.084643 87.833437 49.75 86.78125 C 63.281809 83.644379 77.28159 76.45933 85.0625 64.34375 C 89.499793 53.592058 76.002384 42.972025 66.125 48.40625 C 59.601477 51.700193 53.635313 59.926628 45.40625 56.90625 C 39.379838 52.585544 35.215236 45.753426 31.3125 39.5 C 60.098928 40.198281 91.134584 33.573392 112.4375 13.0625 C 123.91511 1.7363178 130.87076 -18.162337 120.0625 -32.25 C 115.25181 -38.359346 108.50099 -42.402277 101.78125 -46.0625 C 100.45856 -66.531609 88.29103 -84.972512 71.84375 -96.5625 C 66.306209 -102.78128 68.093818 -111.94287 65.34375 -119.375 C 64.216788 -124.62186 63.207346 -130.07394 62 -135.1875 z "
       xlink:href="#path4107"
       style="fill:none;stroke:#42291b;stroke-width:5;stroke-linecap:butt;stroke-linejoin:miter;stroke-miterlimit:4;stroke-opacity:1;stroke-dasharray:none;display:inline"
       id="path4109"
       inkscape:href="#path4107"
       d="m 62,-135.1875 c -8.742447,7.35915 -16.66769,15.65402 -25.9375,22.40625 -16.789704,-5.06921 -35.31989384,-3.50012 -51.09375,4 -13.187079,-8.53182 -26.325731,-17.13906 -39.5625,-25.59375 1.425273,19.58862 3.646884,39.121668 4.5,58.75 -13.516764,17.550941 -23.02191,41.393934 -15.5625,63.28125 5.644095,14.0898287 14.357788,28.064388 28.03125,35.8125 -12.206795,6.333854 -22.012762,16.359326 -33.34375,23.875 -5.868014,7.881971 -0.363976,18.030515 2.875,25.84375 -16.688126,-4.276395 -26.205179,-19.722896 -34.28125,-33.75 -2.5587,-6.522135 -10.53129,-13.555887 -17.4375,-8.71875 -10.74196,10.008628 -8.00554,27.044025 -1.75,38.84375 9.79189,17.176628 30.131565,24.92066 49.21875,25.71875 -6.287654,3.21264 -13.827717,7.03827 -20.78125,3.34375 -7.71558,-1.804357 -17.0475,5.44825 -14.1875,13.6875 2.57714,15.92049 13.088432,30.41543 26.375,38.96875 8.562853,4.44903 21.618152,-1.5968 20.34375,-12.1875 -0.425083,-5.94051 -3.760294,-11.25788 -7.09375,-16.03125 18.002053,-3.85313 34.732324,-12.19864 50.4375,-21.5625 11.772737,18.51214 29.36828,32.15988 45.21875,46.875 7.955381,3.92272 17.558202,2.49353 26.1875,4.3125 10.852952,0.72458 22.814812,2.57729 32.875,-1.84375 6.70725,-7.9558 0.295822,-20.48117 -8.71875,-23.625 -9.695664,-4.46047 -20.623536,-3.47486 -30.90625,-3.15625 -7.83069,-2.63172 -12.174348,-10.77432 -18.71875,-15.46875 -7.158016,-6.78253 -14.180989,-13.709217 -20.25,-21.5 5.877001,-4.848561 10.160335,-11.381205 14.78125,-17.4375 8.500557,5.802018 14.865893,18.177187 26.53125,17.125 C 63.281809,83.644379 77.28159,76.45933 85.0625,64.34375 89.499793,53.592058 76.002384,42.972025 66.125,48.40625 59.601477,51.700193 53.635313,59.926628 45.40625,56.90625 39.379838,52.585544 35.215236,45.753426 31.3125,39.5 c 28.786428,0.698281 59.822084,-5.926608 81.125,-26.4375 11.47761,-11.3261822 18.43326,-31.224837 7.625,-45.3125 -4.81069,-6.109346 -11.56151,-10.152277 -18.28125,-13.8125 -1.32269,-20.469109 -13.49022,-38.910012 -29.9375,-50.5 -5.537541,-6.21878 -3.749932,-15.38037 -6.5,-22.8125 -1.126962,-5.24686 -2.136404,-10.69894 -3.34375,-15.8125 z" />
    <path
       sodipodi:type="inkscape:offset"
       inkscape:radius="0"
       inkscape:original="M 62 -135.1875 C 53.257553 -127.82835 45.33231 -119.53348 36.0625 -112.78125 C 19.272796 -117.85046 0.74260616 -116.28137 -15.03125 -108.78125 C -28.218329 -117.31307 -41.356981 -125.92031 -54.59375 -134.375 C -53.168477 -114.78638 -50.946866 -95.253332 -50.09375 -75.625 C -63.610514 -58.074059 -73.11566 -34.231066 -65.65625 -12.34375 C -60.012155 1.7460787 -51.298462 15.720638 -37.625 23.46875 C -49.831795 29.802604 -59.637762 39.828076 -70.96875 47.34375 C -76.836764 55.225721 -71.332726 65.374265 -68.09375 73.1875 C -84.781876 68.911105 -94.298929 53.464604 -102.375 39.4375 C -104.9337 32.915365 -112.90629 25.881613 -119.8125 30.71875 C -130.55446 40.727378 -127.81804 57.762775 -121.5625 69.5625 C -111.77061 86.739128 -91.430935 94.48316 -72.34375 95.28125 C -78.631404 98.49389 -86.171467 102.31952 -93.125 98.625 C -100.84058 96.820643 -110.1725 104.07325 -107.3125 112.3125 C -104.73536 128.23299 -94.224068 142.72793 -80.9375 151.28125 C -72.374647 155.73028 -59.319348 149.68445 -60.59375 139.09375 C -61.018833 133.15324 -64.354044 127.83587 -67.6875 123.0625 C -49.685447 119.20937 -32.955176 110.86386 -17.25 101.5 C -5.477263 120.01214 12.11828 133.65988 27.96875 148.375 C 35.924131 152.29772 45.526952 150.86853 54.15625 152.6875 C 65.009202 153.41208 76.971062 155.26479 87.03125 150.84375 C 93.7385 142.88795 87.327072 130.36258 78.3125 127.21875 C 68.616836 122.75828 57.688964 123.74389 47.40625 124.0625 C 39.57556 121.43078 35.231902 113.28818 28.6875 108.59375 C 21.529484 101.81122 14.506511 94.884533 8.4375 87.09375 C 14.314501 82.245189 18.597835 75.712545 23.21875 69.65625 C 31.719307 75.458268 38.084643 87.833437 49.75 86.78125 C 63.281809 83.644379 77.28159 76.45933 85.0625 64.34375 C 89.499793 53.592058 76.002384 42.972025 66.125 48.40625 C 59.601477 51.700193 53.635313 59.926628 45.40625 56.90625 C 39.379838 52.585544 35.215236 45.753426 31.3125 39.5 C 60.098928 40.198281 91.134584 33.573392 112.4375 13.0625 C 123.91511 1.7363178 130.87076 -18.162337 120.0625 -32.25 C 115.25181 -38.359346 108.50099 -42.402277 101.78125 -46.0625 C 100.45856 -66.531609 88.29103 -84.972512 71.84375 -96.5625 C 66.306209 -102.78128 68.093818 -111.94287 65.34375 -119.375 C 64.216788 -124.62186 63.207346 -130.07394 62 -135.1875 z "
       xlink:href="#path4105"
       style="fill:none;stroke:#42291b;stroke-width:5;stroke-linecap:butt;stroke-linejoin:miter;stroke-miterlimit:4;stroke-opacity:1;stroke-dasharray:none;display:inline"
       id="path4107"
       inkscape:href="#path4105"
       d="m 62,-135.1875 c -8.742447,7.35915 -16.66769,15.65402 -25.9375,22.40625 -16.789704,-5.06921 -35.31989384,-3.50012 -51.09375,4 -13.187079,-8.53182 -26.325731,-17.13906 -39.5625,-25.59375 1.425273,19.58862 3.646884,39.121668 4.5,58.75 -13.516764,17.550941 -23.02191,41.393934 -15.5625,63.28125 5.644095,14.0898287 14.357788,28.064388 28.03125,35.8125 -12.206795,6.333854 -22.012762,16.359326 -33.34375,23.875 -5.868014,7.881971 -0.363976,18.030515 2.875,25.84375 -16.688126,-4.276395 -26.205179,-19.722896 -34.28125,-33.75 -2.5587,-6.522135 -10.53129,-13.555887 -17.4375,-8.71875 -10.74196,10.008628 -8.00554,27.044025 -1.75,38.84375 9.79189,17.176628 30.131565,24.92066 49.21875,25.71875 -6.287654,3.21264 -13.827717,7.03827 -20.78125,3.34375 -7.71558,-1.804357 -17.0475,5.44825 -14.1875,13.6875 2.57714,15.92049 13.088432,30.41543 26.375,38.96875 8.562853,4.44903 21.618152,-1.5968 20.34375,-12.1875 -0.425083,-5.94051 -3.760294,-11.25788 -7.09375,-16.03125 18.002053,-3.85313 34.732324,-12.19864 50.4375,-21.5625 11.772737,18.51214 29.36828,32.15988 45.21875,46.875 7.955381,3.92272 17.558202,2.49353 26.1875,4.3125 10.852952,0.72458 22.814812,2.57729 32.875,-1.84375 6.70725,-7.9558 0.295822,-20.48117 -8.71875,-23.625 -9.695664,-4.46047 -20.623536,-3.47486 -30.90625,-3.15625 -7.83069,-2.63172 -12.174348,-10.77432 -18.71875,-15.46875 -7.158016,-6.78253 -14.180989,-13.709217 -20.25,-21.5 5.877001,-4.848561 10.160335,-11.381205 14.78125,-17.4375 8.500557,5.802018 14.865893,18.177187 26.53125,17.125 C 63.281809,83.644379 77.28159,76.45933 85.0625,64.34375 89.499793,53.592058 76.002384,42.972025 66.125,48.40625 59.601477,51.700193 53.635313,59.926628 45.40625,56.90625 39.379838,52.585544 35.215236,45.753426 31.3125,39.5 c 28.786428,0.698281 59.822084,-5.926608 81.125,-26.4375 11.47761,-11.3261822 18.43326,-31.224837 7.625,-45.3125 -4.81069,-6.109346 -11.56151,-10.152277 -18.28125,-13.8125 -1.32269,-20.469109 -13.49022,-38.910012 -29.9375,-50.5 -5.537541,-6.21878 -3.749932,-15.38037 -6.5,-22.8125 -1.126962,-5.24686 -2.136404,-10.69894 -3.34375,-15.8125 z" />
    <path
       sodipodi:type="inkscape:offset"
       inkscape:radius="0"
       inkscape:original="M 62 -135.1875 C 53.257553 -127.82835 45.33231 -119.53348 36.0625 -112.78125 C 19.272796 -117.85046 0.74260616 -116.28137 -15.03125 -108.78125 C -28.218329 -117.31307 -41.356981 -125.92031 -54.59375 -134.375 C -53.168477 -114.78638 -50.946866 -95.253332 -50.09375 -75.625 C -63.610514 -58.074059 -73.11566 -34.231066 -65.65625 -12.34375 C -60.012155 1.7460787 -51.298462 15.720638 -37.625 23.46875 C -49.831795 29.802604 -59.637762 39.828076 -70.96875 47.34375 C -76.836764 55.225721 -71.332726 65.374265 -68.09375 73.1875 C -84.781876 68.911105 -94.298929 53.464604 -102.375 39.4375 C -104.9337 32.915365 -112.90629 25.881613 -119.8125 30.71875 C -130.55446 40.727378 -127.81804 57.762775 -121.5625 69.5625 C -111.77061 86.739128 -91.430935 94.48316 -72.34375 95.28125 C -78.631404 98.49389 -86.171467 102.31952 -93.125 98.625 C -100.84058 96.820643 -110.1725 104.07325 -107.3125 112.3125 C -104.73536 128.23299 -94.224068 142.72793 -80.9375 151.28125 C -72.374647 155.73028 -59.319348 149.68445 -60.59375 139.09375 C -61.018833 133.15324 -64.354044 127.83587 -67.6875 123.0625 C -49.685447 119.20937 -32.955176 110.86386 -17.25 101.5 C -5.477263 120.01214 12.11828 133.65988 27.96875 148.375 C 35.924131 152.29772 45.526952 150.86853 54.15625 152.6875 C 65.009202 153.41208 76.971062 155.26479 87.03125 150.84375 C 93.7385 142.88795 87.327072 130.36258 78.3125 127.21875 C 68.616836 122.75828 57.688964 123.74389 47.40625 124.0625 C 39.57556 121.43078 35.231902 113.28818 28.6875 108.59375 C 21.529484 101.81122 14.506511 94.884533 8.4375 87.09375 C 14.314501 82.245189 18.597835 75.712545 23.21875 69.65625 C 31.719307 75.458268 38.084643 87.833437 49.75 86.78125 C 63.281809 83.644379 77.28159 76.45933 85.0625 64.34375 C 89.499793 53.592058 76.002384 42.972025 66.125 48.40625 C 59.601477 51.700193 53.635313 59.926628 45.40625 56.90625 C 39.379838 52.585544 35.215236 45.753426 31.3125 39.5 C 60.098928 40.198281 91.134584 33.573392 112.4375 13.0625 C 123.91511 1.7363178 130.87076 -18.162337 120.0625 -32.25 C 115.25181 -38.359346 108.50099 -42.402277 101.78125 -46.0625 C 100.45856 -66.531609 88.29103 -84.972512 71.84375 -96.5625 C 66.306209 -102.78128 68.093818 -111.94287 65.34375 -119.375 C 64.216788 -124.62186 63.207346 -130.07394 62 -135.1875 z "
       xlink:href="#path4103"
       style="fill:none;stroke:#42291b;stroke-width:5;stroke-linecap:butt;stroke-linejoin:miter;stroke-miterlimit:4;stroke-opacity:1;stroke-dasharray:none;display:inline"
       id="path4105"
       inkscape:href="#path4103"
       d="m 62,-135.1875 c -8.742447,7.35915 -16.66769,15.65402 -25.9375,22.40625 -16.789704,-5.06921 -35.31989384,-3.50012 -51.09375,4 -13.187079,-8.53182 -26.325731,-17.13906 -39.5625,-25.59375 1.425273,19.58862 3.646884,39.121668 4.5,58.75 -13.516764,17.550941 -23.02191,41.393934 -15.5625,63.28125 5.644095,14.0898287 14.357788,28.064388 28.03125,35.8125 -12.206795,6.333854 -22.012762,16.359326 -33.34375,23.875 -5.868014,7.881971 -0.363976,18.030515 2.875,25.84375 -16.688126,-4.276395 -26.205179,-19.722896 -34.28125,-33.75 -2.5587,-6.522135 -10.53129,-13.555887 -17.4375,-8.71875 -10.74196,10.008628 -8.00554,27.044025 -1.75,38.84375 9.79189,17.176628 30.131565,24.92066 49.21875,25.71875 -6.287654,3.21264 -13.827717,7.03827 -20.78125,3.34375 -7.71558,-1.804357 -17.0475,5.44825 -14.1875,13.6875 2.57714,15.92049 13.088432,30.41543 26.375,38.96875 8.562853,4.44903 21.618152,-1.5968 20.34375,-12.1875 -0.425083,-5.94051 -3.760294,-11.25788 -7.09375,-16.03125 18.002053,-3.85313 34.732324,-12.19864 50.4375,-21.5625 11.772737,18.51214 29.36828,32.15988 45.21875,46.875 7.955381,3.92272 17.558202,2.49353 26.1875,4.3125 10.852952,0.72458 22.814812,2.57729 32.875,-1.84375 6.70725,-7.9558 0.295822,-20.48117 -8.71875,-23.625 -9.695664,-4.46047 -20.623536,-3.47486 -30.90625,-3.15625 -7.83069,-2.63172 -12.174348,-10.77432 -18.71875,-15.46875 -7.158016,-6.78253 -14.180989,-13.709217 -20.25,-21.5 5.877001,-4.848561 10.160335,-11.381205 14.78125,-17.4375 8.500557,5.802018 14.865893,18.177187 26.53125,17.125 C 63.281809,83.644379 77.28159,76.45933 85.0625,64.34375 89.499793,53.592058 76.002384,42.972025 66.125,48.40625 59.601477,51.700193 53.635313,59.926628 45.40625,56.90625 39.379838,52.585544 35.215236,45.753426 31.3125,39.5 c 28.786428,0.698281 59.822084,-5.926608 81.125,-26.4375 11.47761,-11.3261822 18.43326,-31.224837 7.625,-45.3125 -4.81069,-6.109346 -11.56151,-10.152277 -18.28125,-13.8125 -1.32269,-20.469109 -13.49022,-38.910012 -29.9375,-50.5 -5.537541,-6.21878 -3.749932,-15.38037 -6.5,-22.8125 -1.126962,-5.24686 -2.136404,-10.69894 -3.34375,-15.8125 z" />
    <path
       sodipodi:type="inkscape:offset"
       inkscape:radius="0"
       inkscape:original="M 62 -135.1875 C 53.257553 -127.82835 45.33231 -119.53348 36.0625 -112.78125 C 19.272796 -117.85046 0.74260616 -116.28137 -15.03125 -108.78125 C -28.218329 -117.31307 -41.356981 -125.92031 -54.59375 -134.375 C -53.168477 -114.78638 -50.946866 -95.253332 -50.09375 -75.625 C -63.610514 -58.074059 -73.11566 -34.231066 -65.65625 -12.34375 C -60.012155 1.7460787 -51.298462 15.720638 -37.625 23.46875 C -49.831795 29.802604 -59.637762 39.828076 -70.96875 47.34375 C -76.836764 55.225721 -71.332726 65.374265 -68.09375 73.1875 C -84.781876 68.911105 -94.298929 53.464604 -102.375 39.4375 C -104.9337 32.915365 -112.90629 25.881613 -119.8125 30.71875 C -130.55446 40.727378 -127.81804 57.762775 -121.5625 69.5625 C -111.77061 86.739128 -91.430935 94.48316 -72.34375 95.28125 C -78.631404 98.49389 -86.171467 102.31952 -93.125 98.625 C -100.84058 96.820643 -110.1725 104.07325 -107.3125 112.3125 C -104.73536 128.23299 -94.224068 142.72793 -80.9375 151.28125 C -72.374647 155.73028 -59.319348 149.68445 -60.59375 139.09375 C -61.018833 133.15324 -64.354044 127.83587 -67.6875 123.0625 C -49.685447 119.20937 -32.955176 110.86386 -17.25 101.5 C -5.477263 120.01214 12.11828 133.65988 27.96875 148.375 C 35.924131 152.29772 45.526952 150.86853 54.15625 152.6875 C 65.009202 153.41208 76.971062 155.26479 87.03125 150.84375 C 93.7385 142.88795 87.327072 130.36258 78.3125 127.21875 C 68.616836 122.75828 57.688964 123.74389 47.40625 124.0625 C 39.57556 121.43078 35.231902 113.28818 28.6875 108.59375 C 21.529484 101.81122 14.506511 94.884533 8.4375 87.09375 C 14.314501 82.245189 18.597835 75.712545 23.21875 69.65625 C 31.719307 75.458268 38.084643 87.833437 49.75 86.78125 C 63.281809 83.644379 77.28159 76.45933 85.0625 64.34375 C 89.499793 53.592058 76.002384 42.972025 66.125 48.40625 C 59.601477 51.700193 53.635313 59.926628 45.40625 56.90625 C 39.379838 52.585544 35.215236 45.753426 31.3125 39.5 C 60.098928 40.198281 91.134584 33.573392 112.4375 13.0625 C 123.91511 1.7363178 130.87076 -18.162337 120.0625 -32.25 C 115.25181 -38.359346 108.50099 -42.402277 101.78125 -46.0625 C 100.45856 -66.531609 88.29103 -84.972512 71.84375 -96.5625 C 66.306209 -102.78128 68.093818 -111.94287 65.34375 -119.375 C 64.216788 -124.62186 63.207346 -130.07394 62 -135.1875 z "
       xlink:href="#path4101"
       style="fill:none;stroke:#42291b;stroke-width:5;stroke-linecap:butt;stroke-linejoin:miter;stroke-miterlimit:4;stroke-opacity:1;stroke-dasharray:none;display:inline"
       id="path4103"
       inkscape:href="#path4101"
       d="m 62,-135.1875 c -8.742447,7.35915 -16.66769,15.65402 -25.9375,22.40625 -16.789704,-5.06921 -35.31989384,-3.50012 -51.09375,4 -13.187079,-8.53182 -26.325731,-17.13906 -39.5625,-25.59375 1.425273,19.58862 3.646884,39.121668 4.5,58.75 -13.516764,17.550941 -23.02191,41.393934 -15.5625,63.28125 5.644095,14.0898287 14.357788,28.064388 28.03125,35.8125 -12.206795,6.333854 -22.012762,16.359326 -33.34375,23.875 -5.868014,7.881971 -0.363976,18.030515 2.875,25.84375 -16.688126,-4.276395 -26.205179,-19.722896 -34.28125,-33.75 -2.5587,-6.522135 -10.53129,-13.555887 -17.4375,-8.71875 -10.74196,10.008628 -8.00554,27.044025 -1.75,38.84375 9.79189,17.176628 30.131565,24.92066 49.21875,25.71875 -6.287654,3.21264 -13.827717,7.03827 -20.78125,3.34375 -7.71558,-1.804357 -17.0475,5.44825 -14.1875,13.6875 2.57714,15.92049 13.088432,30.41543 26.375,38.96875 8.562853,4.44903 21.618152,-1.5968 20.34375,-12.1875 -0.425083,-5.94051 -3.760294,-11.25788 -7.09375,-16.03125 18.002053,-3.85313 34.732324,-12.19864 50.4375,-21.5625 11.772737,18.51214 29.36828,32.15988 45.21875,46.875 7.955381,3.92272 17.558202,2.49353 26.1875,4.3125 10.852952,0.72458 22.814812,2.57729 32.875,-1.84375 6.70725,-7.9558 0.295822,-20.48117 -8.71875,-23.625 -9.695664,-4.46047 -20.623536,-3.47486 -30.90625,-3.15625 -7.83069,-2.63172 -12.174348,-10.77432 -18.71875,-15.46875 -7.158016,-6.78253 -14.180989,-13.709217 -20.25,-21.5 5.877001,-4.848561 10.160335,-11.381205 14.78125,-17.4375 8.500557,5.802018 14.865893,18.177187 26.53125,17.125 C 63.281809,83.644379 77.28159,76.45933 85.0625,64.34375 89.499793,53.592058 76.002384,42.972025 66.125,48.40625 59.601477,51.700193 53.635313,59.926628 45.40625,56.90625 39.379838,52.585544 35.215236,45.753426 31.3125,39.5 c 28.786428,0.698281 59.822084,-5.926608 81.125,-26.4375 11.47761,-11.3261822 18.43326,-31.224837 7.625,-45.3125 -4.81069,-6.109346 -11.56151,-10.152277 -18.28125,-13.8125 -1.32269,-20.469109 -13.49022,-38.910012 -29.9375,-50.5 -5.537541,-6.21878 -3.749932,-15.38037 -6.5,-22.8125 -1.126962,-5.24686 -2.136404,-10.69894 -3.34375,-15.8125 z" />
    <path
       sodipodi:type="inkscape:offset"
       inkscape:radius="0"
       inkscape:original="M 62 -135.1875 C 53.257553 -127.82835 45.33231 -119.53348 36.0625 -112.78125 C 19.272796 -117.85046 0.74260616 -116.28137 -15.03125 -108.78125 C -28.218329 -117.31307 -41.356981 -125.92031 -54.59375 -134.375 C -53.168477 -114.78638 -50.946866 -95.253332 -50.09375 -75.625 C -63.610514 -58.074059 -73.11566 -34.231066 -65.65625 -12.34375 C -60.012155 1.7460787 -51.298462 15.720638 -37.625 23.46875 C -49.831795 29.802604 -59.637762 39.828076 -70.96875 47.34375 C -76.836764 55.225721 -71.332726 65.374265 -68.09375 73.1875 C -84.781876 68.911105 -94.298929 53.464604 -102.375 39.4375 C -104.9337 32.915365 -112.90629 25.881613 -119.8125 30.71875 C -130.55446 40.727378 -127.81804 57.762775 -121.5625 69.5625 C -111.77061 86.739128 -91.430935 94.48316 -72.34375 95.28125 C -78.631404 98.49389 -86.171467 102.31952 -93.125 98.625 C -100.84058 96.820643 -110.1725 104.07325 -107.3125 112.3125 C -104.73536 128.23299 -94.224068 142.72793 -80.9375 151.28125 C -72.374647 155.73028 -59.319348 149.68445 -60.59375 139.09375 C -61.018833 133.15324 -64.354044 127.83587 -67.6875 123.0625 C -49.685447 119.20937 -32.955176 110.86386 -17.25 101.5 C -5.477263 120.01214 12.11828 133.65988 27.96875 148.375 C 35.924131 152.29772 45.526952 150.86853 54.15625 152.6875 C 65.009202 153.41208 76.971062 155.26479 87.03125 150.84375 C 93.7385 142.88795 87.327072 130.36258 78.3125 127.21875 C 68.616836 122.75828 57.688964 123.74389 47.40625 124.0625 C 39.57556 121.43078 35.231902 113.28818 28.6875 108.59375 C 21.529484 101.81122 14.506511 94.884533 8.4375 87.09375 C 14.314501 82.245189 18.597835 75.712545 23.21875 69.65625 C 31.719307 75.458268 38.084643 87.833437 49.75 86.78125 C 63.281809 83.644379 77.28159 76.45933 85.0625 64.34375 C 89.499793 53.592058 76.002384 42.972025 66.125 48.40625 C 59.601477 51.700193 53.635313 59.926628 45.40625 56.90625 C 39.379838 52.585544 35.215236 45.753426 31.3125 39.5 C 60.098928 40.198281 91.134584 33.573392 112.4375 13.0625 C 123.91511 1.7363178 130.87076 -18.162337 120.0625 -32.25 C 115.25181 -38.359346 108.50099 -42.402277 101.78125 -46.0625 C 100.45856 -66.531609 88.29103 -84.972512 71.84375 -96.5625 C 66.306209 -102.78128 68.093818 -111.94287 65.34375 -119.375 C 64.216788 -124.62186 63.207346 -130.07394 62 -135.1875 z "
       xlink:href="#path4099"
       style="fill:none;stroke:#42291b;stroke-width:5;stroke-linecap:butt;stroke-linejoin:miter;stroke-miterlimit:4;stroke-opacity:1;stroke-dasharray:none;display:inline"
       id="path4101"
       inkscape:href="#path4099"
       d="m 62,-135.1875 c -8.742447,7.35915 -16.66769,15.65402 -25.9375,22.40625 -16.789704,-5.06921 -35.31989384,-3.50012 -51.09375,4 -13.187079,-8.53182 -26.325731,-17.13906 -39.5625,-25.59375 1.425273,19.58862 3.646884,39.121668 4.5,58.75 -13.516764,17.550941 -23.02191,41.393934 -15.5625,63.28125 5.644095,14.0898287 14.357788,28.064388 28.03125,35.8125 -12.206795,6.333854 -22.012762,16.359326 -33.34375,23.875 -5.868014,7.881971 -0.363976,18.030515 2.875,25.84375 -16.688126,-4.276395 -26.205179,-19.722896 -34.28125,-33.75 -2.5587,-6.522135 -10.53129,-13.555887 -17.4375,-8.71875 -10.74196,10.008628 -8.00554,27.044025 -1.75,38.84375 9.79189,17.176628 30.131565,24.92066 49.21875,25.71875 -6.287654,3.21264 -13.827717,7.03827 -20.78125,3.34375 -7.71558,-1.804357 -17.0475,5.44825 -14.1875,13.6875 2.57714,15.92049 13.088432,30.41543 26.375,38.96875 8.562853,4.44903 21.618152,-1.5968 20.34375,-12.1875 -0.425083,-5.94051 -3.760294,-11.25788 -7.09375,-16.03125 18.002053,-3.85313 34.732324,-12.19864 50.4375,-21.5625 11.772737,18.51214 29.36828,32.15988 45.21875,46.875 7.955381,3.92272 17.558202,2.49353 26.1875,4.3125 10.852952,0.72458 22.814812,2.57729 32.875,-1.84375 6.70725,-7.9558 0.295822,-20.48117 -8.71875,-23.625 -9.695664,-4.46047 -20.623536,-3.47486 -30.90625,-3.15625 -7.83069,-2.63172 -12.174348,-10.77432 -18.71875,-15.46875 -7.158016,-6.78253 -14.180989,-13.709217 -20.25,-21.5 5.877001,-4.848561 10.160335,-11.381205 14.78125,-17.4375 8.500557,5.802018 14.865893,18.177187 26.53125,17.125 C 63.281809,83.644379 77.28159,76.45933 85.0625,64.34375 89.499793,53.592058 76.002384,42.972025 66.125,48.40625 59.601477,51.700193 53.635313,59.926628 45.40625,56.90625 39.379838,52.585544 35.215236,45.753426 31.3125,39.5 c 28.786428,0.698281 59.822084,-5.926608 81.125,-26.4375 11.47761,-11.3261822 18.43326,-31.224837 7.625,-45.3125 -4.81069,-6.109346 -11.56151,-10.152277 -18.28125,-13.8125 -1.32269,-20.469109 -13.49022,-38.910012 -29.9375,-50.5 -5.537541,-6.21878 -3.749932,-15.38037 -6.5,-22.8125 -1.126962,-5.24686 -2.136404,-10.69894 -3.34375,-15.8125 z" />
    <path
       sodipodi:type="inkscape:offset"
       inkscape:radius="0"
       inkscape:original="M 62 -135.1875 C 53.257553 -127.82835 45.33231 -119.53348 36.0625 -112.78125 C 19.272796 -117.85046 0.74260616 -116.28137 -15.03125 -108.78125 C -28.218329 -117.31307 -41.356981 -125.92031 -54.59375 -134.375 C -53.168477 -114.78638 -50.946866 -95.253332 -50.09375 -75.625 C -63.610514 -58.074059 -73.11566 -34.231066 -65.65625 -12.34375 C -60.012155 1.7460787 -51.298462 15.720638 -37.625 23.46875 C -49.831795 29.802604 -59.637762 39.828076 -70.96875 47.34375 C -76.836764 55.225721 -71.332726 65.374265 -68.09375 73.1875 C -84.781876 68.911105 -94.298929 53.464604 -102.375 39.4375 C -104.9337 32.915365 -112.90629 25.881613 -119.8125 30.71875 C -130.55446 40.727378 -127.81804 57.762775 -121.5625 69.5625 C -111.77061 86.739128 -91.430935 94.48316 -72.34375 95.28125 C -78.631404 98.49389 -86.171467 102.31952 -93.125 98.625 C -100.84058 96.820643 -110.1725 104.07325 -107.3125 112.3125 C -104.73536 128.23299 -94.224068 142.72793 -80.9375 151.28125 C -72.374647 155.73028 -59.319348 149.68445 -60.59375 139.09375 C -61.018833 133.15324 -64.354044 127.83587 -67.6875 123.0625 C -49.685447 119.20937 -32.955176 110.86386 -17.25 101.5 C -5.477263 120.01214 12.11828 133.65988 27.96875 148.375 C 35.924131 152.29772 45.526952 150.86853 54.15625 152.6875 C 65.009202 153.41208 76.971062 155.26479 87.03125 150.84375 C 93.7385 142.88795 87.327072 130.36258 78.3125 127.21875 C 68.616836 122.75828 57.688964 123.74389 47.40625 124.0625 C 39.57556 121.43078 35.231902 113.28818 28.6875 108.59375 C 21.529484 101.81122 14.506511 94.884533 8.4375 87.09375 C 14.314501 82.245189 18.597835 75.712545 23.21875 69.65625 C 31.719307 75.458268 38.084643 87.833437 49.75 86.78125 C 63.281809 83.644379 77.28159 76.45933 85.0625 64.34375 C 89.499793 53.592058 76.002384 42.972025 66.125 48.40625 C 59.601477 51.700193 53.635313 59.926628 45.40625 56.90625 C 39.379838 52.585544 35.215236 45.753426 31.3125 39.5 C 60.098928 40.198281 91.134584 33.573392 112.4375 13.0625 C 123.91511 1.7363178 130.87076 -18.162337 120.0625 -32.25 C 115.25181 -38.359346 108.50099 -42.402277 101.78125 -46.0625 C 100.45856 -66.531609 88.29103 -84.972512 71.84375 -96.5625 C 66.306209 -102.78128 68.093818 -111.94287 65.34375 -119.375 C 64.216788 -124.62186 63.207346 -130.07394 62 -135.1875 z "
       xlink:href="#path4097"
       style="fill:none;stroke:#42291b;stroke-width:5;stroke-linecap:butt;stroke-linejoin:miter;stroke-miterlimit:4;stroke-opacity:1;stroke-dasharray:none;display:inline"
       id="path4099"
       inkscape:href="#path4097"
       d="m 62,-135.1875 c -8.742447,7.35915 -16.66769,15.65402 -25.9375,22.40625 -16.789704,-5.06921 -35.31989384,-3.50012 -51.09375,4 -13.187079,-8.53182 -26.325731,-17.13906 -39.5625,-25.59375 1.425273,19.58862 3.646884,39.121668 4.5,58.75 -13.516764,17.550941 -23.02191,41.393934 -15.5625,63.28125 5.644095,14.0898287 14.357788,28.064388 28.03125,35.8125 -12.206795,6.333854 -22.012762,16.359326 -33.34375,23.875 -5.868014,7.881971 -0.363976,18.030515 2.875,25.84375 -16.688126,-4.276395 -26.205179,-19.722896 -34.28125,-33.75 -2.5587,-6.522135 -10.53129,-13.555887 -17.4375,-8.71875 -10.74196,10.008628 -8.00554,27.044025 -1.75,38.84375 9.79189,17.176628 30.131565,24.92066 49.21875,25.71875 -6.287654,3.21264 -13.827717,7.03827 -20.78125,3.34375 -7.71558,-1.804357 -17.0475,5.44825 -14.1875,13.6875 2.57714,15.92049 13.088432,30.41543 26.375,38.96875 8.562853,4.44903 21.618152,-1.5968 20.34375,-12.1875 -0.425083,-5.94051 -3.760294,-11.25788 -7.09375,-16.03125 18.002053,-3.85313 34.732324,-12.19864 50.4375,-21.5625 11.772737,18.51214 29.36828,32.15988 45.21875,46.875 7.955381,3.92272 17.558202,2.49353 26.1875,4.3125 10.852952,0.72458 22.814812,2.57729 32.875,-1.84375 6.70725,-7.9558 0.295822,-20.48117 -8.71875,-23.625 -9.695664,-4.46047 -20.623536,-3.47486 -30.90625,-3.15625 -7.83069,-2.63172 -12.174348,-10.77432 -18.71875,-15.46875 -7.158016,-6.78253 -14.180989,-13.709217 -20.25,-21.5 5.877001,-4.848561 10.160335,-11.381205 14.78125,-17.4375 8.500557,5.802018 14.865893,18.177187 26.53125,17.125 C 63.281809,83.644379 77.28159,76.45933 85.0625,64.34375 89.499793,53.592058 76.002384,42.972025 66.125,48.40625 59.601477,51.700193 53.635313,59.926628 45.40625,56.90625 39.379838,52.585544 35.215236,45.753426 31.3125,39.5 c 28.786428,0.698281 59.822084,-5.926608 81.125,-26.4375 11.47761,-11.3261822 18.43326,-31.224837 7.625,-45.3125 -4.81069,-6.109346 -11.56151,-10.152277 -18.28125,-13.8125 -1.32269,-20.469109 -13.49022,-38.910012 -29.9375,-50.5 -5.537541,-6.21878 -3.749932,-15.38037 -6.5,-22.8125 -1.126962,-5.24686 -2.136404,-10.69894 -3.34375,-15.8125 z" />
    <path
       sodipodi:type="inkscape:offset"
       inkscape:radius="0"
       inkscape:original="M 62 -135.1875 C 53.257553 -127.82835 45.33231 -119.53348 36.0625 -112.78125 C 19.272796 -117.85046 0.74260616 -116.28137 -15.03125 -108.78125 C -28.218329 -117.31307 -41.356981 -125.92031 -54.59375 -134.375 C -53.168477 -114.78638 -50.946866 -95.253332 -50.09375 -75.625 C -63.610514 -58.074059 -73.11566 -34.231066 -65.65625 -12.34375 C -60.012155 1.7460787 -51.298462 15.720638 -37.625 23.46875 C -49.831795 29.802604 -59.637762 39.828076 -70.96875 47.34375 C -76.836764 55.225721 -71.332726 65.374265 -68.09375 73.1875 C -84.781876 68.911105 -94.298929 53.464604 -102.375 39.4375 C -104.9337 32.915365 -112.90629 25.881613 -119.8125 30.71875 C -130.55446 40.727378 -127.81804 57.762775 -121.5625 69.5625 C -111.77061 86.739128 -91.430935 94.48316 -72.34375 95.28125 C -78.631404 98.49389 -86.171467 102.31952 -93.125 98.625 C -100.84058 96.820643 -110.1725 104.07325 -107.3125 112.3125 C -104.73536 128.23299 -94.224068 142.72793 -80.9375 151.28125 C -72.374647 155.73028 -59.319348 149.68445 -60.59375 139.09375 C -61.018833 133.15324 -64.354044 127.83587 -67.6875 123.0625 C -49.685447 119.20937 -32.955176 110.86386 -17.25 101.5 C -5.477263 120.01214 12.11828 133.65988 27.96875 148.375 C 35.924131 152.29772 45.526952 150.86853 54.15625 152.6875 C 65.009202 153.41208 76.971062 155.26479 87.03125 150.84375 C 93.7385 142.88795 87.327072 130.36258 78.3125 127.21875 C 68.616836 122.75828 57.688964 123.74389 47.40625 124.0625 C 39.57556 121.43078 35.231902 113.28818 28.6875 108.59375 C 21.529484 101.81122 14.506511 94.884533 8.4375 87.09375 C 14.314501 82.245189 18.597835 75.712545 23.21875 69.65625 C 31.719307 75.458268 38.084643 87.833437 49.75 86.78125 C 63.281809 83.644379 77.28159 76.45933 85.0625 64.34375 C 89.499793 53.592058 76.002384 42.972025 66.125 48.40625 C 59.601477 51.700193 53.635313 59.926628 45.40625 56.90625 C 39.379838 52.585544 35.215236 45.753426 31.3125 39.5 C 60.098928 40.198281 91.134584 33.573392 112.4375 13.0625 C 123.91511 1.7363178 130.87076 -18.162337 120.0625 -32.25 C 115.25181 -38.359346 108.50099 -42.402277 101.78125 -46.0625 C 100.45856 -66.531609 88.29103 -84.972512 71.84375 -96.5625 C 66.306209 -102.78128 68.093818 -111.94287 65.34375 -119.375 C 64.216788 -124.62186 63.207346 -130.07394 62 -135.1875 z "
       xlink:href="#path4095"
       style="fill:none;stroke:#42291b;stroke-width:5;stroke-linecap:butt;stroke-linejoin:miter;stroke-miterlimit:4;stroke-opacity:1;stroke-dasharray:none;display:inline"
       id="path4097"
       inkscape:href="#path4095"
       d="m 62,-135.1875 c -8.742447,7.35915 -16.66769,15.65402 -25.9375,22.40625 -16.789704,-5.06921 -35.31989384,-3.50012 -51.09375,4 -13.187079,-8.53182 -26.325731,-17.13906 -39.5625,-25.59375 1.425273,19.58862 3.646884,39.121668 4.5,58.75 -13.516764,17.550941 -23.02191,41.393934 -15.5625,63.28125 5.644095,14.0898287 14.357788,28.064388 28.03125,35.8125 -12.206795,6.333854 -22.012762,16.359326 -33.34375,23.875 -5.868014,7.881971 -0.363976,18.030515 2.875,25.84375 -16.688126,-4.276395 -26.205179,-19.722896 -34.28125,-33.75 -2.5587,-6.522135 -10.53129,-13.555887 -17.4375,-8.71875 -10.74196,10.008628 -8.00554,27.044025 -1.75,38.84375 9.79189,17.176628 30.131565,24.92066 49.21875,25.71875 -6.287654,3.21264 -13.827717,7.03827 -20.78125,3.34375 -7.71558,-1.804357 -17.0475,5.44825 -14.1875,13.6875 2.57714,15.92049 13.088432,30.41543 26.375,38.96875 8.562853,4.44903 21.618152,-1.5968 20.34375,-12.1875 -0.425083,-5.94051 -3.760294,-11.25788 -7.09375,-16.03125 18.002053,-3.85313 34.732324,-12.19864 50.4375,-21.5625 11.772737,18.51214 29.36828,32.15988 45.21875,46.875 7.955381,3.92272 17.558202,2.49353 26.1875,4.3125 10.852952,0.72458 22.814812,2.57729 32.875,-1.84375 6.70725,-7.9558 0.295822,-20.48117 -8.71875,-23.625 -9.695664,-4.46047 -20.623536,-3.47486 -30.90625,-3.15625 -7.83069,-2.63172 -12.174348,-10.77432 -18.71875,-15.46875 -7.158016,-6.78253 -14.180989,-13.709217 -20.25,-21.5 5.877001,-4.848561 10.160335,-11.381205 14.78125,-17.4375 8.500557,5.802018 14.865893,18.177187 26.53125,17.125 C 63.281809,83.644379 77.28159,76.45933 85.0625,64.34375 89.499793,53.592058 76.002384,42.972025 66.125,48.40625 59.601477,51.700193 53.635313,59.926628 45.40625,56.90625 39.379838,52.585544 35.215236,45.753426 31.3125,39.5 c 28.786428,0.698281 59.822084,-5.926608 81.125,-26.4375 11.47761,-11.3261822 18.43326,-31.224837 7.625,-45.3125 -4.81069,-6.109346 -11.56151,-10.152277 -18.28125,-13.8125 -1.32269,-20.469109 -13.49022,-38.910012 -29.9375,-50.5 -5.537541,-6.21878 -3.749932,-15.38037 -6.5,-22.8125 -1.126962,-5.24686 -2.136404,-10.69894 -3.34375,-15.8125 z" />
    <path
       sodipodi:type="inkscape:offset"
       inkscape:radius="0"
       inkscape:original="M 62 -135.1875 C 53.257553 -127.82835 45.33231 -119.53348 36.0625 -112.78125 C 19.272796 -117.85046 0.74260616 -116.28137 -15.03125 -108.78125 C -28.218329 -117.31307 -41.356981 -125.92031 -54.59375 -134.375 C -53.168477 -114.78638 -50.946866 -95.253332 -50.09375 -75.625 C -63.610514 -58.074059 -73.11566 -34.231066 -65.65625 -12.34375 C -60.012155 1.7460787 -51.298462 15.720638 -37.625 23.46875 C -49.831795 29.802604 -59.637762 39.828076 -70.96875 47.34375 C -76.836764 55.225721 -71.332726 65.374265 -68.09375 73.1875 C -84.781876 68.911105 -94.298929 53.464604 -102.375 39.4375 C -104.9337 32.915365 -112.90629 25.881613 -119.8125 30.71875 C -130.55446 40.727378 -127.81804 57.762775 -121.5625 69.5625 C -111.77061 86.739128 -91.430935 94.48316 -72.34375 95.28125 C -78.631404 98.49389 -86.171467 102.31952 -93.125 98.625 C -100.84058 96.820643 -110.1725 104.07325 -107.3125 112.3125 C -104.73536 128.23299 -94.224068 142.72793 -80.9375 151.28125 C -72.374647 155.73028 -59.319348 149.68445 -60.59375 139.09375 C -61.018833 133.15324 -64.354044 127.83587 -67.6875 123.0625 C -49.685447 119.20937 -32.955176 110.86386 -17.25 101.5 C -5.477263 120.01214 12.11828 133.65988 27.96875 148.375 C 35.924131 152.29772 45.526952 150.86853 54.15625 152.6875 C 65.009202 153.41208 76.971062 155.26479 87.03125 150.84375 C 93.7385 142.88795 87.327072 130.36258 78.3125 127.21875 C 68.616836 122.75828 57.688964 123.74389 47.40625 124.0625 C 39.57556 121.43078 35.231902 113.28818 28.6875 108.59375 C 21.529484 101.81122 14.506511 94.884533 8.4375 87.09375 C 14.314501 82.245189 18.597835 75.712545 23.21875 69.65625 C 31.719307 75.458268 38.084643 87.833437 49.75 86.78125 C 63.281809 83.644379 77.28159 76.45933 85.0625 64.34375 C 89.499793 53.592058 76.002384 42.972025 66.125 48.40625 C 59.601477 51.700193 53.635313 59.926628 45.40625 56.90625 C 39.379838 52.585544 35.215236 45.753426 31.3125 39.5 C 60.098928 40.198281 91.134584 33.573392 112.4375 13.0625 C 123.91511 1.7363178 130.87076 -18.162337 120.0625 -32.25 C 115.25181 -38.359346 108.50099 -42.402277 101.78125 -46.0625 C 100.45856 -66.531609 88.29103 -84.972512 71.84375 -96.5625 C 66.306209 -102.78128 68.093818 -111.94287 65.34375 -119.375 C 64.216788 -124.62186 63.207346 -130.07394 62 -135.1875 z "
       xlink:href="#path4093"
       style="fill:none;stroke:#42291b;stroke-width:5;stroke-linecap:butt;stroke-linejoin:miter;stroke-miterlimit:4;stroke-opacity:1;stroke-dasharray:none;display:inline"
       id="path4095"
       inkscape:href="#path4093"
       d="m 62,-135.1875 c -8.742447,7.35915 -16.66769,15.65402 -25.9375,22.40625 -16.789704,-5.06921 -35.31989384,-3.50012 -51.09375,4 -13.187079,-8.53182 -26.325731,-17.13906 -39.5625,-25.59375 1.425273,19.58862 3.646884,39.121668 4.5,58.75 -13.516764,17.550941 -23.02191,41.393934 -15.5625,63.28125 5.644095,14.0898287 14.357788,28.064388 28.03125,35.8125 -12.206795,6.333854 -22.012762,16.359326 -33.34375,23.875 -5.868014,7.881971 -0.363976,18.030515 2.875,25.84375 -16.688126,-4.276395 -26.205179,-19.722896 -34.28125,-33.75 -2.5587,-6.522135 -10.53129,-13.555887 -17.4375,-8.71875 -10.74196,10.008628 -8.00554,27.044025 -1.75,38.84375 9.79189,17.176628 30.131565,24.92066 49.21875,25.71875 -6.287654,3.21264 -13.827717,7.03827 -20.78125,3.34375 -7.71558,-1.804357 -17.0475,5.44825 -14.1875,13.6875 2.57714,15.92049 13.088432,30.41543 26.375,38.96875 8.562853,4.44903 21.618152,-1.5968 20.34375,-12.1875 -0.425083,-5.94051 -3.760294,-11.25788 -7.09375,-16.03125 18.002053,-3.85313 34.732324,-12.19864 50.4375,-21.5625 11.772737,18.51214 29.36828,32.15988 45.21875,46.875 7.955381,3.92272 17.558202,2.49353 26.1875,4.3125 10.852952,0.72458 22.814812,2.57729 32.875,-1.84375 6.70725,-7.9558 0.295822,-20.48117 -8.71875,-23.625 -9.695664,-4.46047 -20.623536,-3.47486 -30.90625,-3.15625 -7.83069,-2.63172 -12.174348,-10.77432 -18.71875,-15.46875 -7.158016,-6.78253 -14.180989,-13.709217 -20.25,-21.5 5.877001,-4.848561 10.160335,-11.381205 14.78125,-17.4375 8.500557,5.802018 14.865893,18.177187 26.53125,17.125 C 63.281809,83.644379 77.28159,76.45933 85.0625,64.34375 89.499793,53.592058 76.002384,42.972025 66.125,48.40625 59.601477,51.700193 53.635313,59.926628 45.40625,56.90625 39.379838,52.585544 35.215236,45.753426 31.3125,39.5 c 28.786428,0.698281 59.822084,-5.926608 81.125,-26.4375 11.47761,-11.3261822 18.43326,-31.224837 7.625,-45.3125 -4.81069,-6.109346 -11.56151,-10.152277 -18.28125,-13.8125 -1.32269,-20.469109 -13.49022,-38.910012 -29.9375,-50.5 -5.537541,-6.21878 -3.749932,-15.38037 -6.5,-22.8125 -1.126962,-5.24686 -2.136404,-10.69894 -3.34375,-15.8125 z" />
    <path
       sodipodi:type="inkscape:offset"
       inkscape:radius="0"
       inkscape:original="M 62 -135.1875 C 53.257553 -127.82835 45.33231 -119.53348 36.0625 -112.78125 C 19.272796 -117.85046 0.74260616 -116.28137 -15.03125 -108.78125 C -28.218329 -117.31307 -41.356981 -125.92031 -54.59375 -134.375 C -53.168477 -114.78638 -50.946866 -95.253332 -50.09375 -75.625 C -63.610514 -58.074059 -73.11566 -34.231066 -65.65625 -12.34375 C -60.012155 1.7460787 -51.298462 15.720638 -37.625 23.46875 C -49.831795 29.802604 -59.637762 39.828076 -70.96875 47.34375 C -76.836764 55.225721 -71.332726 65.374265 -68.09375 73.1875 C -84.781876 68.911105 -94.298929 53.464604 -102.375 39.4375 C -104.9337 32.915365 -112.90629 25.881613 -119.8125 30.71875 C -130.55446 40.727378 -127.81804 57.762775 -121.5625 69.5625 C -111.77061 86.739128 -91.430935 94.48316 -72.34375 95.28125 C -78.631404 98.49389 -86.171467 102.31952 -93.125 98.625 C -100.84058 96.820643 -110.1725 104.07325 -107.3125 112.3125 C -104.73536 128.23299 -94.224068 142.72793 -80.9375 151.28125 C -72.374647 155.73028 -59.319348 149.68445 -60.59375 139.09375 C -61.018833 133.15324 -64.354044 127.83587 -67.6875 123.0625 C -49.685447 119.20937 -32.955176 110.86386 -17.25 101.5 C -5.477263 120.01214 12.11828 133.65988 27.96875 148.375 C 35.924131 152.29772 45.526952 150.86853 54.15625 152.6875 C 65.009202 153.41208 76.971062 155.26479 87.03125 150.84375 C 93.7385 142.88795 87.327072 130.36258 78.3125 127.21875 C 68.616836 122.75828 57.688964 123.74389 47.40625 124.0625 C 39.57556 121.43078 35.231902 113.28818 28.6875 108.59375 C 21.529484 101.81122 14.506511 94.884533 8.4375 87.09375 C 14.314501 82.245189 18.597835 75.712545 23.21875 69.65625 C 31.719307 75.458268 38.084643 87.833437 49.75 86.78125 C 63.281809 83.644379 77.28159 76.45933 85.0625 64.34375 C 89.499793 53.592058 76.002384 42.972025 66.125 48.40625 C 59.601477 51.700193 53.635313 59.926628 45.40625 56.90625 C 39.379838 52.585544 35.215236 45.753426 31.3125 39.5 C 60.098928 40.198281 91.134584 33.573392 112.4375 13.0625 C 123.91511 1.7363178 130.87076 -18.162337 120.0625 -32.25 C 115.25181 -38.359346 108.50099 -42.402277 101.78125 -46.0625 C 100.45856 -66.531609 88.29103 -84.972512 71.84375 -96.5625 C 66.306209 -102.78128 68.093818 -111.94287 65.34375 -119.375 C 64.216788 -124.62186 63.207346 -130.07394 62 -135.1875 z "
       xlink:href="#path4091"
       style="fill:none;stroke:#42291b;stroke-width:5;stroke-linecap:butt;stroke-linejoin:miter;stroke-miterlimit:4;stroke-opacity:1;stroke-dasharray:none;display:inline"
       id="path4093"
       inkscape:href="#path4091"
       d="m 62,-135.1875 c -8.742447,7.35915 -16.66769,15.65402 -25.9375,22.40625 -16.789704,-5.06921 -35.31989384,-3.50012 -51.09375,4 -13.187079,-8.53182 -26.325731,-17.13906 -39.5625,-25.59375 1.425273,19.58862 3.646884,39.121668 4.5,58.75 -13.516764,17.550941 -23.02191,41.393934 -15.5625,63.28125 5.644095,14.0898287 14.357788,28.064388 28.03125,35.8125 -12.206795,6.333854 -22.012762,16.359326 -33.34375,23.875 -5.868014,7.881971 -0.363976,18.030515 2.875,25.84375 -16.688126,-4.276395 -26.205179,-19.722896 -34.28125,-33.75 -2.5587,-6.522135 -10.53129,-13.555887 -17.4375,-8.71875 -10.74196,10.008628 -8.00554,27.044025 -1.75,38.84375 9.79189,17.176628 30.131565,24.92066 49.21875,25.71875 -6.287654,3.21264 -13.827717,7.03827 -20.78125,3.34375 -7.71558,-1.804357 -17.0475,5.44825 -14.1875,13.6875 2.57714,15.92049 13.088432,30.41543 26.375,38.96875 8.562853,4.44903 21.618152,-1.5968 20.34375,-12.1875 -0.425083,-5.94051 -3.760294,-11.25788 -7.09375,-16.03125 18.002053,-3.85313 34.732324,-12.19864 50.4375,-21.5625 11.772737,18.51214 29.36828,32.15988 45.21875,46.875 7.955381,3.92272 17.558202,2.49353 26.1875,4.3125 10.852952,0.72458 22.814812,2.57729 32.875,-1.84375 6.70725,-7.9558 0.295822,-20.48117 -8.71875,-23.625 -9.695664,-4.46047 -20.623536,-3.47486 -30.90625,-3.15625 -7.83069,-2.63172 -12.174348,-10.77432 -18.71875,-15.46875 -7.158016,-6.78253 -14.180989,-13.709217 -20.25,-21.5 5.877001,-4.848561 10.160335,-11.381205 14.78125,-17.4375 8.500557,5.802018 14.865893,18.177187 26.53125,17.125 C 63.281809,83.644379 77.28159,76.45933 85.0625,64.34375 89.499793,53.592058 76.002384,42.972025 66.125,48.40625 59.601477,51.700193 53.635313,59.926628 45.40625,56.90625 39.379838,52.585544 35.215236,45.753426 31.3125,39.5 c 28.786428,0.698281 59.822084,-5.926608 81.125,-26.4375 11.47761,-11.3261822 18.43326,-31.224837 7.625,-45.3125 -4.81069,-6.109346 -11.56151,-10.152277 -18.28125,-13.8125 -1.32269,-20.469109 -13.49022,-38.910012 -29.9375,-50.5 -5.537541,-6.21878 -3.749932,-15.38037 -6.5,-22.8125 -1.126962,-5.24686 -2.136404,-10.69894 -3.34375,-15.8125 z" />
    <path
       sodipodi:type="inkscape:offset"
       inkscape:radius="0"
       inkscape:original="M 62 -135.1875 C 53.257553 -127.82835 45.33231 -119.53348 36.0625 -112.78125 C 19.272796 -117.85046 0.74260616 -116.28137 -15.03125 -108.78125 C -28.218329 -117.31307 -41.356981 -125.92031 -54.59375 -134.375 C -53.168477 -114.78638 -50.946866 -95.253332 -50.09375 -75.625 C -63.610514 -58.074059 -73.11566 -34.231066 -65.65625 -12.34375 C -60.012155 1.7460787 -51.298462 15.720638 -37.625 23.46875 C -49.831795 29.802604 -59.637762 39.828076 -70.96875 47.34375 C -76.836764 55.225721 -71.332726 65.374265 -68.09375 73.1875 C -84.781876 68.911105 -94.298929 53.464604 -102.375 39.4375 C -104.9337 32.915365 -112.90629 25.881613 -119.8125 30.71875 C -130.55446 40.727378 -127.81804 57.762775 -121.5625 69.5625 C -111.77061 86.739128 -91.430935 94.48316 -72.34375 95.28125 C -78.631404 98.49389 -86.171467 102.31952 -93.125 98.625 C -100.84058 96.820643 -110.1725 104.07325 -107.3125 112.3125 C -104.73536 128.23299 -94.224068 142.72793 -80.9375 151.28125 C -72.374647 155.73028 -59.319348 149.68445 -60.59375 139.09375 C -61.018833 133.15324 -64.354044 127.83587 -67.6875 123.0625 C -49.685447 119.20937 -32.955176 110.86386 -17.25 101.5 C -5.477263 120.01214 12.11828 133.65988 27.96875 148.375 C 35.924131 152.29772 45.526952 150.86853 54.15625 152.6875 C 65.009202 153.41208 76.971062 155.26479 87.03125 150.84375 C 93.7385 142.88795 87.327072 130.36258 78.3125 127.21875 C 68.616836 122.75828 57.688964 123.74389 47.40625 124.0625 C 39.57556 121.43078 35.231902 113.28818 28.6875 108.59375 C 21.529484 101.81122 14.506511 94.884533 8.4375 87.09375 C 14.314501 82.245189 18.597835 75.712545 23.21875 69.65625 C 31.719307 75.458268 38.084643 87.833437 49.75 86.78125 C 63.281809 83.644379 77.28159 76.45933 85.0625 64.34375 C 89.499793 53.592058 76.002384 42.972025 66.125 48.40625 C 59.601477 51.700193 53.635313 59.926628 45.40625 56.90625 C 39.379838 52.585544 35.215236 45.753426 31.3125 39.5 C 60.098928 40.198281 91.134584 33.573392 112.4375 13.0625 C 123.91511 1.7363178 130.87076 -18.162337 120.0625 -32.25 C 115.25181 -38.359346 108.50099 -42.402277 101.78125 -46.0625 C 100.45856 -66.531609 88.29103 -84.972512 71.84375 -96.5625 C 66.306209 -102.78128 68.093818 -111.94287 65.34375 -119.375 C 64.216788 -124.62186 63.207346 -130.07394 62 -135.1875 z "
       xlink:href="#path4033-1-3"
       style="fill:none;stroke:#42291b;stroke-width:5;stroke-linecap:butt;stroke-linejoin:miter;stroke-miterlimit:4;stroke-opacity:1;stroke-dasharray:none;display:inline"
       id="path4091"
       inkscape:href="#path4033-1-3"
       d="m 62,-135.1875 c -8.742447,7.35915 -16.66769,15.65402 -25.9375,22.40625 -16.789704,-5.06921 -35.31989384,-3.50012 -51.09375,4 -13.187079,-8.53182 -26.325731,-17.13906 -39.5625,-25.59375 1.425273,19.58862 3.646884,39.121668 4.5,58.75 -13.516764,17.550941 -23.02191,41.393934 -15.5625,63.28125 5.644095,14.0898287 14.357788,28.064388 28.03125,35.8125 -12.206795,6.333854 -22.012762,16.359326 -33.34375,23.875 -5.868014,7.881971 -0.363976,18.030515 2.875,25.84375 -16.688126,-4.276395 -26.205179,-19.722896 -34.28125,-33.75 -2.5587,-6.522135 -10.53129,-13.555887 -17.4375,-8.71875 -10.74196,10.008628 -8.00554,27.044025 -1.75,38.84375 9.79189,17.176628 30.131565,24.92066 49.21875,25.71875 -6.287654,3.21264 -13.827717,7.03827 -20.78125,3.34375 -7.71558,-1.804357 -17.0475,5.44825 -14.1875,13.6875 2.57714,15.92049 13.088432,30.41543 26.375,38.96875 8.562853,4.44903 21.618152,-1.5968 20.34375,-12.1875 -0.425083,-5.94051 -3.760294,-11.25788 -7.09375,-16.03125 18.002053,-3.85313 34.732324,-12.19864 50.4375,-21.5625 11.772737,18.51214 29.36828,32.15988 45.21875,46.875 7.955381,3.92272 17.558202,2.49353 26.1875,4.3125 10.852952,0.72458 22.814812,2.57729 32.875,-1.84375 6.70725,-7.9558 0.295822,-20.48117 -8.71875,-23.625 -9.695664,-4.46047 -20.623536,-3.47486 -30.90625,-3.15625 -7.83069,-2.63172 -12.174348,-10.77432 -18.71875,-15.46875 -7.158016,-6.78253 -14.180989,-13.709217 -20.25,-21.5 5.877001,-4.848561 10.160335,-11.381205 14.78125,-17.4375 8.500557,5.802018 14.865893,18.177187 26.53125,17.125 C 63.281809,83.644379 77.28159,76.45933 85.0625,64.34375 89.499793,53.592058 76.002384,42.972025 66.125,48.40625 59.601477,51.700193 53.635313,59.926628 45.40625,56.90625 39.379838,52.585544 35.215236,45.753426 31.3125,39.5 c 28.786428,0.698281 59.822084,-5.926608 81.125,-26.4375 11.47761,-11.3261822 18.43326,-31.224837 7.625,-45.3125 -4.81069,-6.109346 -11.56151,-10.152277 -18.28125,-13.8125 -1.32269,-20.469109 -13.49022,-38.910012 -29.9375,-50.5 -5.537541,-6.21878 -3.749932,-15.38037 -6.5,-22.8125 -1.126962,-5.24686 -2.136404,-10.69894 -3.34375,-15.8125 z" />
    <path
       sodipodi:type="inkscape:offset"
       inkscape:radius="0"
       inkscape:original="M 62 -135.1875 C 53.257553 -127.82835 45.33231 -119.53348 36.0625 -112.78125 C 19.272796 -117.85046 0.74260616 -116.28137 -15.03125 -108.78125 C -28.218329 -117.31307 -41.356981 -125.92031 -54.59375 -134.375 C -53.168477 -114.78638 -50.946866 -95.253332 -50.09375 -75.625 C -63.610514 -58.074059 -73.11566 -34.231066 -65.65625 -12.34375 C -60.012155 1.7460787 -51.298462 15.720638 -37.625 23.46875 C -49.831795 29.802604 -59.637762 39.828076 -70.96875 47.34375 C -76.836764 55.225721 -71.332726 65.374265 -68.09375 73.1875 C -84.781876 68.911105 -94.298929 53.464604 -102.375 39.4375 C -104.9337 32.915365 -112.90629 25.881613 -119.8125 30.71875 C -130.55446 40.727378 -127.81804 57.762775 -121.5625 69.5625 C -111.77061 86.739128 -91.430935 94.48316 -72.34375 95.28125 C -78.631404 98.49389 -86.171467 102.31952 -93.125 98.625 C -100.84058 96.820643 -110.1725 104.07325 -107.3125 112.3125 C -104.73536 128.23299 -94.224068 142.72793 -80.9375 151.28125 C -72.374647 155.73028 -59.319348 149.68445 -60.59375 139.09375 C -61.018833 133.15324 -64.354044 127.83587 -67.6875 123.0625 C -49.685447 119.20937 -32.955176 110.86386 -17.25 101.5 C -5.477263 120.01214 12.11828 133.65988 27.96875 148.375 C 35.924131 152.29772 45.526952 150.86853 54.15625 152.6875 C 65.009202 153.41208 76.971062 155.26479 87.03125 150.84375 C 93.7385 142.88795 87.327072 130.36258 78.3125 127.21875 C 68.616836 122.75828 57.688964 123.74389 47.40625 124.0625 C 39.57556 121.43078 35.231902 113.28818 28.6875 108.59375 C 21.529484 101.81122 14.506511 94.884533 8.4375 87.09375 C 14.314501 82.245189 18.597835 75.712545 23.21875 69.65625 C 31.719307 75.458268 38.084643 87.833437 49.75 86.78125 C 63.281809 83.644379 77.28159 76.45933 85.0625 64.34375 C 89.499793 53.592058 76.002384 42.972025 66.125 48.40625 C 59.601477 51.700193 53.635313 59.926628 45.40625 56.90625 C 39.379838 52.585544 35.215236 45.753426 31.3125 39.5 C 60.098928 40.198281 91.134584 33.573392 112.4375 13.0625 C 123.91511 1.7363178 130.87076 -18.162337 120.0625 -32.25 C 115.25181 -38.359346 108.50099 -42.402277 101.78125 -46.0625 C 100.45856 -66.531609 88.29103 -84.972512 71.84375 -96.5625 C 66.306209 -102.78128 68.093818 -111.94287 65.34375 -119.375 C 64.216788 -124.62186 63.207346 -130.07394 62 -135.1875 z "
       xlink:href="#path4111"
       style="fill:none;stroke:#42291b;stroke-width:5;stroke-linecap:butt;stroke-linejoin:miter;stroke-miterlimit:4;stroke-opacity:1;stroke-dasharray:none;display:inline"
       id="path4113"
       inkscape:href="#path4111"
       d="m 62,-135.1875 c -8.742447,7.35915 -16.66769,15.65402 -25.9375,22.40625 -16.789704,-5.06921 -35.31989384,-3.50012 -51.09375,4 -13.187079,-8.53182 -26.325731,-17.13906 -39.5625,-25.59375 1.425273,19.58862 3.646884,39.121668 4.5,58.75 -13.516764,17.550941 -23.02191,41.393934 -15.5625,63.28125 5.644095,14.0898287 14.357788,28.064388 28.03125,35.8125 -12.206795,6.333854 -22.012762,16.359326 -33.34375,23.875 -5.868014,7.881971 -0.363976,18.030515 2.875,25.84375 -16.688126,-4.276395 -26.205179,-19.722896 -34.28125,-33.75 -2.5587,-6.522135 -10.53129,-13.555887 -17.4375,-8.71875 -10.74196,10.008628 -8.00554,27.044025 -1.75,38.84375 9.79189,17.176628 30.131565,24.92066 49.21875,25.71875 -6.287654,3.21264 -13.827717,7.03827 -20.78125,3.34375 -7.71558,-1.804357 -17.0475,5.44825 -14.1875,13.6875 2.57714,15.92049 13.088432,30.41543 26.375,38.96875 8.562853,4.44903 21.618152,-1.5968 20.34375,-12.1875 -0.425083,-5.94051 -3.760294,-11.25788 -7.09375,-16.03125 18.002053,-3.85313 34.732324,-12.19864 50.4375,-21.5625 11.772737,18.51214 29.36828,32.15988 45.21875,46.875 7.955381,3.92272 17.558202,2.49353 26.1875,4.3125 10.852952,0.72458 22.814812,2.57729 32.875,-1.84375 6.70725,-7.9558 0.295822,-20.48117 -8.71875,-23.625 -9.695664,-4.46047 -20.623536,-3.47486 -30.90625,-3.15625 -7.83069,-2.63172 -12.174348,-10.77432 -18.71875,-15.46875 -7.158016,-6.78253 -14.180989,-13.709217 -20.25,-21.5 5.877001,-4.848561 10.160335,-11.381205 14.78125,-17.4375 8.500557,5.802018 14.865893,18.177187 26.53125,17.125 C 63.281809,83.644379 77.28159,76.45933 85.0625,64.34375 89.499793,53.592058 76.002384,42.972025 66.125,48.40625 59.601477,51.700193 53.635313,59.926628 45.40625,56.90625 39.379838,52.585544 35.215236,45.753426 31.3125,39.5 c 28.786428,0.698281 59.822084,-5.926608 81.125,-26.4375 11.47761,-11.3261822 18.43326,-31.224837 7.625,-45.3125 -4.81069,-6.109346 -11.56151,-10.152277 -18.28125,-13.8125 -1.32269,-20.469109 -13.49022,-38.910012 -29.9375,-50.5 -5.537541,-6.21878 -3.749932,-15.38037 -6.5,-22.8125 -1.126962,-5.24686 -2.136404,-10.69894 -3.34375,-15.8125 z" />
    <path
       sodipodi:type="inkscape:offset"
       inkscape:radius="0"
       inkscape:original="M 62 -135.1875 C 53.257553 -127.82835 45.33231 -119.53348 36.0625 -112.78125 C 19.272796 -117.85046 0.74260616 -116.28137 -15.03125 -108.78125 C -28.218329 -117.31307 -41.356981 -125.92031 -54.59375 -134.375 C -53.168477 -114.78638 -50.946866 -95.253332 -50.09375 -75.625 C -63.610514 -58.074059 -73.11566 -34.231066 -65.65625 -12.34375 C -60.012155 1.7460787 -51.298462 15.720638 -37.625 23.46875 C -49.831795 29.802604 -59.637762 39.828076 -70.96875 47.34375 C -76.836764 55.225721 -71.332726 65.374265 -68.09375 73.1875 C -84.781876 68.911105 -94.298929 53.464604 -102.375 39.4375 C -104.9337 32.915365 -112.90629 25.881613 -119.8125 30.71875 C -130.55446 40.727378 -127.81804 57.762775 -121.5625 69.5625 C -111.77061 86.739128 -91.430935 94.48316 -72.34375 95.28125 C -78.631404 98.49389 -86.171467 102.31952 -93.125 98.625 C -100.84058 96.820643 -110.1725 104.07325 -107.3125 112.3125 C -104.73536 128.23299 -94.224068 142.72793 -80.9375 151.28125 C -72.374647 155.73028 -59.319348 149.68445 -60.59375 139.09375 C -61.018833 133.15324 -64.354044 127.83587 -67.6875 123.0625 C -49.685447 119.20937 -32.955176 110.86386 -17.25 101.5 C -5.477263 120.01214 12.11828 133.65988 27.96875 148.375 C 35.924131 152.29772 45.526952 150.86853 54.15625 152.6875 C 65.009202 153.41208 76.971062 155.26479 87.03125 150.84375 C 93.7385 142.88795 87.327072 130.36258 78.3125 127.21875 C 68.616836 122.75828 57.688964 123.74389 47.40625 124.0625 C 39.57556 121.43078 35.231902 113.28818 28.6875 108.59375 C 21.529484 101.81122 14.506511 94.884533 8.4375 87.09375 C 14.314501 82.245189 18.597835 75.712545 23.21875 69.65625 C 31.719307 75.458268 38.084643 87.833437 49.75 86.78125 C 63.281809 83.644379 77.28159 76.45933 85.0625 64.34375 C 89.499793 53.592058 76.002384 42.972025 66.125 48.40625 C 59.601477 51.700193 53.635313 59.926628 45.40625 56.90625 C 39.379838 52.585544 35.215236 45.753426 31.3125 39.5 C 60.098928 40.198281 91.134584 33.573392 112.4375 13.0625 C 123.91511 1.7363178 130.87076 -18.162337 120.0625 -32.25 C 115.25181 -38.359346 108.50099 -42.402277 101.78125 -46.0625 C 100.45856 -66.531609 88.29103 -84.972512 71.84375 -96.5625 C 66.306209 -102.78128 68.093818 -111.94287 65.34375 -119.375 C 64.216788 -124.62186 63.207346 -130.07394 62 -135.1875 z "
       xlink:href="#path4033-1-3"
       style="fill:none;stroke:#42291b;stroke-width:5;stroke-linecap:butt;stroke-linejoin:miter;stroke-miterlimit:4;stroke-opacity:1;stroke-dasharray:none;display:inline"
       id="path4111"
       inkscape:href="#path4033-1-3"
       d="m 62,-135.1875 c -8.742447,7.35915 -16.66769,15.65402 -25.9375,22.40625 -16.789704,-5.06921 -35.31989384,-3.50012 -51.09375,4 -13.187079,-8.53182 -26.325731,-17.13906 -39.5625,-25.59375 1.425273,19.58862 3.646884,39.121668 4.5,58.75 -13.516764,17.550941 -23.02191,41.393934 -15.5625,63.28125 5.644095,14.0898287 14.357788,28.064388 28.03125,35.8125 -12.206795,6.333854 -22.012762,16.359326 -33.34375,23.875 -5.868014,7.881971 -0.363976,18.030515 2.875,25.84375 -16.688126,-4.276395 -26.205179,-19.722896 -34.28125,-33.75 -2.5587,-6.522135 -10.53129,-13.555887 -17.4375,-8.71875 -10.74196,10.008628 -8.00554,27.044025 -1.75,38.84375 9.79189,17.176628 30.131565,24.92066 49.21875,25.71875 -6.287654,3.21264 -13.827717,7.03827 -20.78125,3.34375 -7.71558,-1.804357 -17.0475,5.44825 -14.1875,13.6875 2.57714,15.92049 13.088432,30.41543 26.375,38.96875 8.562853,4.44903 21.618152,-1.5968 20.34375,-12.1875 -0.425083,-5.94051 -3.760294,-11.25788 -7.09375,-16.03125 18.002053,-3.85313 34.732324,-12.19864 50.4375,-21.5625 11.772737,18.51214 29.36828,32.15988 45.21875,46.875 7.955381,3.92272 17.558202,2.49353 26.1875,4.3125 10.852952,0.72458 22.814812,2.57729 32.875,-1.84375 6.70725,-7.9558 0.295822,-20.48117 -8.71875,-23.625 -9.695664,-4.46047 -20.623536,-3.47486 -30.90625,-3.15625 -7.83069,-2.63172 -12.174348,-10.77432 -18.71875,-15.46875 -7.158016,-6.78253 -14.180989,-13.709217 -20.25,-21.5 5.877001,-4.848561 10.160335,-11.381205 14.78125,-17.4375 8.500557,5.802018 14.865893,18.177187 26.53125,17.125 C 63.281809,83.644379 77.28159,76.45933 85.0625,64.34375 89.499793,53.592058 76.002384,42.972025 66.125,48.40625 59.601477,51.700193 53.635313,59.926628 45.40625,56.90625 39.379838,52.585544 35.215236,45.753426 31.3125,39.5 c 28.786428,0.698281 59.822084,-5.926608 81.125,-26.4375 11.47761,-11.3261822 18.43326,-31.224837 7.625,-45.3125 -4.81069,-6.109346 -11.56151,-10.152277 -18.28125,-13.8125 -1.32269,-20.469109 -13.49022,-38.910012 -29.9375,-50.5 -5.537541,-6.21878 -3.749932,-15.38037 -6.5,-22.8125 -1.126962,-5.24686 -2.136404,-10.69894 -3.34375,-15.8125 z" />
    <path
       style="fill:none;stroke:#42291b;stroke-width:5;stroke-linecap:butt;stroke-linejoin:miter;stroke-miterlimit:4;stroke-opacity:1;stroke-dasharray:none;display:inline"
       d="m 62,-135.1875 c -8.742447,7.35915 -16.66769,15.65402 -25.9375,22.40625 -16.789704,-5.06921 -35.31989384,-3.50012 -51.09375,4 -13.187079,-8.53182 -26.325731,-17.13906 -39.5625,-25.59375 1.425273,19.58862 3.646884,39.121668 4.5,58.75 -13.516764,17.550941 -23.02191,41.393934 -15.5625,63.28125 5.644095,14.0898287 14.357788,28.064388 28.03125,35.8125 -12.206795,6.333854 -22.012762,16.359326 -33.34375,23.875 -5.868014,7.881971 -0.363976,18.030515 2.875,25.84375 -16.688126,-4.276395 -26.205179,-19.722896 -34.28125,-33.75 -2.5587,-6.522135 -10.53129,-13.555887 -17.4375,-8.71875 -10.74196,10.008628 -8.00554,27.044025 -1.75,38.84375 9.79189,17.176628 30.131565,24.92066 49.21875,25.71875 -6.287654,3.21264 -13.827717,7.03827 -20.78125,3.34375 -7.71558,-1.804357 -17.0475,5.44825 -14.1875,13.6875 2.57714,15.92049 13.088432,30.41543 26.375,38.96875 8.562853,4.44903 21.618152,-1.5968 20.34375,-12.1875 -0.425083,-5.94051 -3.760294,-11.25788 -7.09375,-16.03125 18.002053,-3.85313 34.732324,-12.19864 50.4375,-21.5625 11.772737,18.51214 29.36828,32.15988 45.21875,46.875 7.955381,3.92272 17.558202,2.49353 26.1875,4.3125 10.852952,0.72458 22.814812,2.57729 32.875,-1.84375 6.70725,-7.9558 0.295822,-20.48117 -8.71875,-23.625 C 68.616836,122.75828 57.688964,123.74389 47.40625,124.0625 39.57556,121.43078 35.235681,113.28787 28.691279,108.59344 21.533263,101.81091 14.506511,94.884533 8.4375,87.09375 14.314501,82.245189 18.597835,75.712545 23.21875,69.65625 31.719307,75.458268 38.084643,87.833437 49.75,86.78125 63.281809,83.644379 77.28159,76.45933 85.0625,64.34375 89.499793,53.592058 76.002384,42.972025 66.125,48.40625 59.601477,51.700193 53.635313,59.926628 45.40625,56.90625 39.379838,52.585544 35.215236,45.753426 31.3125,39.5 c 28.786428,0.698281 59.810444,-5.914965 81.11336,-26.425857 11.47761,-11.3261822 18.4449,-31.23648 7.63664,-45.324143 -4.81069,-6.109346 -11.56151,-10.152277 -18.28125,-13.8125 -1.32269,-20.469109 -13.49022,-38.910012 -29.9375,-50.5 -5.537541,-6.21878 -3.749089,-15.38753 -6.499157,-22.81966 C 64.217631,-124.62902 63.207346,-130.07394 62,-135.1875 z"
       id="path4033-1-3"
       inkscape:connector-curvature="0" />
  </g>
</svg>
