<?xml version="1.0" encoding="UTF-8" standalone="no"?>
<!-- Created with Inkscape (http://www.inkscape.org/) -->

<svg
   xmlns:dc="http://purl.org/dc/elements/1.1/"
   xmlns:cc="http://creativecommons.org/ns#"
   xmlns:rdf="http://www.w3.org/1999/02/22-rdf-syntax-ns#"
   xmlns:svg="http://www.w3.org/2000/svg"
   xmlns="http://www.w3.org/2000/svg"
   version="1.1"
   width="210mm"
   height="297mm"
   id="svg2">
  <defs
     id="defs4" />
  <metadata
     id="metadata7">
    <rdf:RDF>
      <cc:Work
         rdf:about="">
        <dc:format>image/svg+xml</dc:format>
        <dc:type
           rdf:resource="http://purl.org/dc/dcmitype/StillImage" />
        <dc:title></dc:title>
      </cc:Work>
    </rdf:RDF>
  </metadata>
  <g
     id="layer1"
     style="display:inline" />
  <g
     id="layer2"
     style="display:inline">
    <path
       d="m 56.625,-138.90625 -4.96875,4.1875 c -8.477771,7.13635 -16.00694,14.83112 -24.3125,21.125 -16.471356,-4.43745 -34.2077515,-2.96399 -49.75,3.84375 -12.578871,-8.14688 -25.146967,-16.37892 -37.8125,-24.46875 l -6.71875,-4.28125 0.5625,7.9375 c 1.400943,19.25427 3.521089,38.335751 4.40625,57.34375 -13.529509,18.10495 -23.143864,42.525409 -15.25,65.6875 l 0.03125,0.125 0.03125,0.09375 c 5.075188,12.6696303 12.633612,25.518132 24.28125,34.1875 -10.269296,6.462788 -18.899259,14.557681 -28.09375,20.65625 l -0.5625,0.40625 -0.4375,0.5625 c -3.782802,5.081089 -3.849008,11.095239 -2.65625,16.21875 0.372067,1.598221 0.967109,3.06787 1.5,4.5625 -10.09115,-6.016306 -17.15334,-17.180612 -23.5625,-28.3125 -1.66145,-3.921335 -4.53353,-7.579808 -8.4375,-10 -4.08184,-2.530456 -9.95828,-3.356141 -14.75,0 l -0.25,0.15625 -0.1875,0.1875 c -6.32305,5.891391 -8.66884,13.955839 -8.53125,21.75 0.13759,7.794161 2.58091,15.51582 5.96875,21.90625 l 0.0313,0.0625 0.0313,0.0625 c 6.39405,11.216236 16.73229,18.546703 28.28125,22.875 -3.76414,0.264316 -7.33198,1.82236 -10.09375,4.28125 -3.70964,3.30281 -5.96776,8.73914 -4.375,14.25 l -0.0313,0 c 0.0362,0.22365 0.11724,0.43325 0.15625,0.65625 2.9674,16.96236 13.97572,32.00303 28,41.03125 l 0.15625,0.0937 0.15625,0.0937 c 5.677248,2.94975 12.348195,2.38073 17.625,-0.5 5.22743,-2.85378 9.273595,-8.62454 8.53125,-15.53125 l 0.03125,0 c -0.0039,-0.0548 -0.02695,-0.10163 -0.03125,-0.15625 -8.29e-4,-0.0105 8.43e-4,-0.0207 0,-0.0313 -0.40583,-5.06645 -2.522465,-9.27095 -4.875,-13.125 15.346193,-4.05461 29.652079,-10.91916 43.0625,-18.71875 12.152488,17.64002 28.8955332,30.79881 43.6875,44.53125 l 0.4375,0.40625 0.5,0.25 c 9.446144,4.6578 19.526756,3.01678 27.15625,4.625 l 0.28125,0.0625 0.28125,0.0313 c 10.595671,0.7074 23.243803,2.869 34.75,-2.1875 l 0.84375,-0.375 0.59375,-0.6875 c 4.425252,-5.24901 4.477342,-12.20424 2.15625,-17.75 -2.267697,-5.41818 -6.652272,-9.97169 -12.25,-12.0625 l 0,-0.0313 c -0.09069,-0.0417 -0.19046,-0.0529 -0.28125,-0.0937 -0.03375,-0.0152 -0.05998,-0.0474 -0.09375,-0.0625 -10.499838,-4.6884 -21.622317,-3.75128 -31.40625,-3.40625 -2.744489,-1.05587 -5.184443,-3.05919 -7.78125,-5.71875 -2.640638,-2.70445 -5.401185,-5.94269 -9,-8.625 -6.219988,-5.8937 -12.139128,-11.896476 -17.46875,-18.3125 3.820642,-3.763766 6.918426,-7.864482 9.875,-11.875 2.699728,2.431994 5.507572,5.345564 8.78125,8.28125 4.436285,3.978259 10.205113,7.657983 17.5,7 l 0.25,-0.03125 0.28125,-0.0625 c 14.249516,-3.303156 29.209972,-10.841223 37.7812,-24.1874 l 0.1875,-0.28125 0.125,-0.34375 C 86.83273,55.197647 69.669346,41.29684 56.53125,48.375 c -0.02166,0.01094 -0.04089,0.02026 -0.0625,0.03125 -0.02117,0.01152 -0.04136,0.01962 -0.0625,0.03125 -3.957671,2.027441 -7.050571,4.928774 -9.90625,6.71875 -2.685403,1.683245 -4.539199,2.366131 -6.96875,1.65625 -3.220506,-2.438185 -5.955267,-6.007668 -8.5625,-9.84375 C 58.280089,46.429037 86.935709,39.239547 107.4375,19.5 l 0,-0.03125 0.0313,0 c 6.28487,-6.201952 11.22973,-14.6006374 13.25,-23.625 2.02027,-9.024363 0.96076,-18.904791 -5.25,-27 l -0.0313,0 0,-0.03125 c -4.92979,-6.260599 -11.44181,-10.258955 -17.71875,-13.75 C 95.647466,-65.661095 83.418926,-83.963121 67,-95.78125 c -1.923111,-2.209429 -2.73464,-5.06945 -3.28125,-8.78125 -0.529901,-3.59833 -0.778641,-7.83947 -2.25,-12.125 -1.110717,-5.17124 -2.105164,-10.6291 -3.34375,-15.875 l -1.5,-6.34375 z m -4.875,14.84375 c 0.627138,3.03115 1.247199,5.99411 1.90625,9.0625 l 0.0625,0.28125 0.09375,0.25 c 1.091318,2.94931 1.375901,6.82451 2,11.0625 0.624099,4.23799 1.720976,9.032983 5.28125,13.03125 l 0.28125,0.34375 0.375,0.28125 c 15.573496,10.974256 27.019134,28.420644 28.25,47.46875 l 0.15625,2.21875 1.9375,1.0625 c 6.607239,3.59894 12.81567,7.382594 17.03125,12.71875 0.009,0.01147 0.0222,0.01977 0.0313,0.03125 4.57371,5.985056 5.3775,13.073833 3.75,20.34375 -1.62749,7.2698525 -5.85247,14.502542 -11.03125,19.625 -0.0102,0.01014 -0.021,0.02112 -0.0313,0.03125 C 81.629582,33.189157 51.714875,39.712634 23.625,39.03125 l -7.40625,-0.1875 3.9375,6.3125 c 3.886598,6.227582 8.216256,13.555542 15.15625,18.53125 L 35.75,64 l 0.5,0.1875 c 5.510797,2.022673 10.715558,0.122136 14.5,-2.25 3.784442,-2.372136 6.902501,-5.173277 9.40625,-6.4375 l 0.0625,-0.03125 0.0625,-0.03125 c 6.514041,-3.583825 16.001511,3.471935 13.375,10.625 -6.998664,10.608834 -19.749801,17.31341 -32.34375,20.28125 -4.207072,0.268099 -7.432547,-1.688775 -11.125,-5 -3.787863,-3.396784 -7.539995,-8.083317 -12.5,-11.46875 l -3.125,-2.125 -2.3125,3 C 7.5107331,76.961398 3.3774579,83.197941 -1.875,87.53125 l -3,2.5 2.375,3.0625 c 6.2825353,8.06488 13.46001,15.11875 20.65625,21.9375 l 0.21875,0.1875 0.21875,0.15625 c 2.722409,1.95284 5.328588,4.97448 8.34375,8.0625 3.015162,3.08802 6.521541,6.29586 11.40625,7.9375 l 0.6875,0.25 0.71875,-0.0313 c 10.450261,-0.3238 20.669315,-1.10877 29.125,2.78125 l 0.15625,0.0937 0.1875,0.0625 c 3.226103,1.1251 6.413547,4.28942 7.875,7.78125 1.323371,3.16191 1.289327,6.13885 -0.40625,8.6875 -8.489036,3.30115 -19.309988,1.93454 -30.03125,1.21875 -9.276128,-1.84338 -18.021699,-0.87002 -24.34375,-3.8125 C 6.4559332,133.74673 -10.515856,120.39282 -21.65625,102.875 l -2.09375,-3.25 -3.3125,1.96875 c -15.529854,9.25933 -31.90787,17.38187 -49.25,21.09375 l -5.875,1.25 3.4375,4.9375 c 3.252149,4.65695 6.044097,9.40697 6.375,14.03125 l 0.03125,0.0937 0,0.0937 c 0.432853,3.59716 -1.364543,6.0724 -4.4375,7.75 -3.042592,1.66102 -7.118564,1.91927 -10,0.46875 -12.259359,-7.9802 -22.02513,-21.57724 -24.375,-36.09375 l -0.0313,-0.34375 -0.125,-0.34375 c -0.8688,-2.5029 -0.0207,-4.51339 2,-6.3125 2.01236,-1.79167 5.11974,-2.69201 7.46875,-2.15625 0.01,0.002 0.0215,-0.002 0.0313,0 4.232896,1.91206 8.675006,1.88244 12.53125,0.90625 4.147128,-1.04982 7.82089,-2.98537 10.96875,-4.59375 L -64.75,95.46875 -79.96875,94.8125 c -18.088071,-0.756314 -36.95224,-8.105887 -45.84375,-23.59375 -0.0189,-0.033 -0.0436,-0.06068 -0.0625,-0.09375 -2.84121,-5.392516 -4.86038,-12.048338 -4.96875,-18.1875 -0.10706,-6.064798 1.53835,-11.409511 5.78125,-15.5 2.00438,-1.309509 3.52772,-1.045788 5.71875,0.3125 2.27069,1.407669 4.52671,4.286225 5.46875,6.6875 l 0.0937,0.28125 0.15625,0.25 c 8.12051,14.104282 18.172442,30.864426 36.75,35.625 l 7.75,2 -3.0625,-7.40625 c -1.691817,-4.081092 -3.754248,-8.406688 -4.65625,-12.28125 -0.862039,-3.702902 -0.733385,-6.556976 1.09375,-9.25 11.448549,-7.74307 20.996999,-17.287236 32.1875,-23.09375 l 6.53125,-3.40625 -6.40625,-3.625 c -12.493042,-7.079219 -20.794441,-20.1550012 -26.25,-33.75 -0.0086,-0.0215 -0.02264,-0.041 -0.03125,-0.0625 -6.719486,-20.018475 2.070714,-42.546306 15.03125,-59.375 l 0.875,-1.15625 -0.0625,-1.4375 c -0.742298,-17.078567 -2.433606,-33.96616 -3.8125,-50.78125 10.9051,7.01899 21.803825,14.09448 32.71875,21.15625 l 1.875,1.1875 2,-0.9375 c 14.8720958,-7.07136 32.427285,-8.54907 48.21875,-3.78125 l 1.90625,0.5625 L 30.625,-106 c 7.72355,-5.62592 14.408376,-12.02027 21.125,-18.0625 z"
       id="path4033-1-3"
       style="font-size:medium;font-style:normal;font-variant:normal;font-weight:normal;font-stretch:normal;text-indent:0;text-align:start;text-decoration:none;line-height:normal;letter-spacing:normal;word-spacing:normal;text-transform:none;direction:ltr;block-progression:tb;writing-mode:lr-tb;text-anchor:start;baseline-shift:baseline;color:#000000;fill:#42291b;fill-opacity:1;stroke:none;stroke-width:8;marker:none;visibility:visible;display:inline;overflow:visible;enable-background:accumulate;font-family:Sans;-inkscape-font-specification:Sans" />
  </g>
</svg>
