<?xml version="1.0" encoding="UTF-8" standalone="no"?>
<!-- Created with Inkscape (http://www.inkscape.org/) -->

<svg
   xmlns:dc="http://purl.org/dc/elements/1.1/"
   xmlns:cc="http://creativecommons.org/ns#"
   xmlns:rdf="http://www.w3.org/1999/02/22-rdf-syntax-ns#"
   xmlns:svg="http://www.w3.org/2000/svg"
   xmlns="http://www.w3.org/2000/svg"
   xmlns:sodipodi="http://sodipodi.sourceforge.net/DTD/sodipodi-0.dtd"
   xmlns:inkscape="http://www.inkscape.org/namespaces/inkscape"
   width="210mm"
   height="297mm"
   id="svg2"
   version="1.1"
   inkscape:version="0.48.3.1 r9886"
   sodipodi:docname="dibujo.svg">
  <defs
     id="defs4" />
  <sodipodi:namedview
     id="base"
     pagecolor="#ffffff"
     bordercolor="#666666"
     borderopacity="1.0"
     inkscape:pageopacity="0.0"
     inkscape:pageshadow="2"
     inkscape:zoom="0.7"
     inkscape:cx="-65.202634"
     inkscape:cy="937.22522"
     inkscape:document-units="px"
     inkscape:current-layer="layer1"
     showgrid="false"
     inkscape:window-width="1024"
     inkscape:window-height="578"
     inkscape:window-x="0"
     inkscape:window-y="0"
     inkscape:window-maximized="1" />
  <metadata
     id="metadata7">
    <rdf:RDF>
      <cc:Work
         rdf:about="">
        <dc:format>image/svg+xml</dc:format>
        <dc:type
           rdf:resource="http://purl.org/dc/dcmitype/StillImage" />
        <dc:title />
      </cc:Work>
    </rdf:RDF>
  </metadata>
  <g
     inkscape:label="Capa 1"
     inkscape:groupmode="layer"
     id="layer1"
     style="display:inline" />
  <g
     inkscape:groupmode="layer"
     id="layer2"
     inkscape:label="calco"
     style="display:inline">
    <path
       style="fill:none;stroke:#000000;stroke-width:1px;stroke-linecap:butt;stroke-linejoin:miter;stroke-opacity:1"
       d="m -30,-16.923533 -2.857143,-23.571428 16.785713,13.214286 c 5.84249,-1.767489 6.3485302,-2.678572 18.9285702,-1.607144 l 10.7142898,-10.535715 2.85714,14.464286 c 7.62145,5.34355 10.54543,10.896053 12.67857,20.5357182 5.02502,2.37543 9.05842,4.09885997 9.10715,11.78571 C 35.9171,18.19171 24.65357,23.72067 18.81128,25.82901 -4.2244298,30.829 -19.28571,24.32647 -19.28571,24.32647 l 0,0 c -3.226981,-0.78826 -17.321433,-7.19888 -17.500005,-21.6071498 -0.718117,-7.18219 1.55807,-12.59292 4.285715,-16.7857112 z"
       id="path3150"
       inkscape:connector-curvature="0"
       sodipodi:nodetypes="cccccccccccccc" />
    <path
       inkscape:connector-curvature="0"
       style="fill:none;stroke:#42291b;stroke-width:0.98123848;stroke-linecap:butt;stroke-linejoin:miter;stroke-miterlimit:4;stroke-opacity:1;stroke-dasharray:none;display:inline"
       id="path3973-2"
       d="m -4.9184798,-12.488172 c 3.09795,5.1413022 2.54005,11.1713022 -1.25205,13.45341217 -3.78821,2.28527003 -9.3759202,-0.035 -12.4755702,-5.18137997 -3.10936,-5.1464 -2.54466,-11.1681432 1.24452,-13.4526802 3.79477,-2.285751 9.3841902,0.0323 12.4831002,5.180648 z" />
    <path
       inkscape:connector-curvature="0"
       style="fill:none;stroke:#42291b;stroke-width:0.98123848;stroke-linecap:butt;stroke-linejoin:miter;stroke-miterlimit:4;stroke-opacity:1;stroke-dasharray:none;display:inline"
       id="path3981-6"
       d="m 22.14684,-15.154331 c 3.10158,5.139602 3.01269,10.8842212 -0.19018,12.8156012 -3.21016,1.93624997 -8.31405,-0.67399 -11.41831,-5.81748 -3.1066898,-5.1463982 -3.0253298,-10.8829992 0.18993,-12.8199742 3.2036,-1.927502 8.32085,0.673752 11.41856,5.821853 z" />
    <path
       inkscape:connector-curvature="0"
       style="fill:#221e1f;fill-opacity:1;fill-rule:nonzero;stroke:none;display:inline"
       id="path3989-6"
       d="m 20.30505,-7.8534198 c -0.0369,0.93194 -0.75439,1.66859 -1.61589,1.63678 -0.85178,-0.0343 -1.52942,-0.81268 -1.4942,-1.7434 0.0369,-0.93655 0.76362,-1.66738 1.62099,-1.63459 0.86077,0.0279 1.52383,0.81049 1.4891,1.74121" />
    <path
       inkscape:connector-curvature="0"
       style="fill:#221e1f;fill-opacity:1;fill-rule:nonzero;stroke:none;display:inline"
       id="path3985-7"
       d="m -8.2705998,-5.1938198 c -0.0258,0.94165 -0.7522,1.66884 -1.61297,1.6358 -0.8605302,-0.0282 -1.5272402,-0.81535 -1.4881302,-1.74825 0.0325,-0.92878 0.75608,-1.65791 1.6122402,-1.6239 0.85883,0.0262 1.52019,0.80879 1.48886,1.73635" />
    <path
       inkscape:connector-curvature="0"
       style="fill:none;stroke:#42291b;stroke-width:0.98123848;stroke-linecap:butt;stroke-linejoin:miter;stroke-miterlimit:4;stroke-opacity:1;stroke-dasharray:none;display:inline"
       id="path4045-0"
       d="m -6.8461498,6.1602302 c 0,0 11.48632,3.8472398 15.79964,4.9513698 4.3028798,1.09467 12.1005698,2.32801 12.1005698,2.32801 0,0 -9.3769,11.17325 -19.7491298,7.87396 -10.37246,-3.2976 -9.94499,-9.88962 -8.15108,-15.1533398 z" />
    <path
       inkscape:connector-curvature="0"
       style="fill:#604b44;fill-opacity:1;fill-rule:nonzero;stroke:none;display:inline"
       id="path3993-1-6"
       d="m 7.9085602,-1.6590598 c 2.08634,0.0785 5.1349798,-0.12994 5.2530198,0.82797997 0.12436,0.96666 -2.08877,4.64704003 -3.5309998,4.75876003 -1.44271,0.10444 -6.7771,-2.88834 -6.7907,-4.64825003 -0.0165,-1.75966997 3.15478,-1.00527997 5.06868,-0.93848997" />
    <path
       inkscape:connector-curvature="0"
       style="fill:none;stroke:#42291b;stroke-width:0.98123848;stroke-linecap:butt;stroke-linejoin:miter;stroke-miterlimit:4;stroke-opacity:1;stroke-dasharray:none;display:inline"
       id="path4001-9"
       d="m -33.682475,1.7384602 c 0,0 -2.60271,-2.09728003 -6.71662,-4.10056 -4.57102,-2.22017 -7.09625,-2.8434 -7.09625,-2.8434" />
    <path
       inkscape:connector-curvature="0"
       style="fill:none;stroke:#42291b;stroke-width:0.98123848;stroke-linecap:butt;stroke-linejoin:miter;stroke-miterlimit:4;stroke-opacity:1;stroke-dasharray:none;display:inline"
       id="path4005-3"
       d="m -47.195093,5.7742302 c 0,0 4.59725,0.58558 6.69428,0.54599 2.09752,-0.044 6.19274,-0.4401 6.19274,-0.4401" />
    <path
       inkscape:connector-curvature="0"
       style="fill:none;stroke:#42291b;stroke-width:0.98123848;stroke-linecap:butt;stroke-linejoin:miter;stroke-miterlimit:4;stroke-opacity:1;stroke-dasharray:none;display:inline"
       id="path4037-2"
       d="m 32.92977,2.7515202 c 0,0 5.13474,-0.64291 7.76611,-1.45656 3.07706,-0.95379003 5.19546,-2.67388 5.19546,-2.67388" />
    <path
       inkscape:connector-curvature="0"
       style="fill:none;stroke:#42291b;stroke-width:0.98123848;stroke-linecap:butt;stroke-linejoin:miter;stroke-miterlimit:4;stroke-opacity:1;stroke-dasharray:none;display:inline"
       id="path4041-4"
       d="m 32.95412,9.1937402 c 0,0 3.00978,1.3506598 6.14901,1.7829898 3.10281,0.418 5.21247,0.30919 5.21247,0.30919" />
  </g>
</svg>
